<?xml version="1.0" encoding="UTF-8" standalone="no"?>
<!DOCTYPE svg PUBLIC "-//W3C//DTD SVG 1.1//EN"
 "http://www.w3.org/Graphics/SVG/1.1/DTD/svg11.dtd">
<!-- Generated by graphviz version 2.28.0 (20120228.1928)
 -->
<!-- Title: G Pages: 1 -->
<svg width="2224pt" height="632pt"
 viewBox="0.00 0.00 2224.00 632.00" xmlns="http://www.w3.org/2000/svg" xmlns:xlink="http://www.w3.org/1999/xlink">
<g id="graph1" class="graph" transform="scale(1 1) rotate(0) translate(4 628)">
<title>G</title>
<polygon fill="white" stroke="white" points="-4,5 -4,-628 2221,-628 2221,5 -4,5"/>
<!-- blk_mq_init_queue -->
<g id="node1" class="node"><title>blk_mq_init_queue</title>
<ellipse fill="none" stroke="black" cx="1078" cy="-606" rx="78.9404" ry="18"/>
<text text-anchor="middle" x="1078" y="-602.3" font-family="Times,serif" font-size="14.00">blk_mq_init_queue</text>
</g>
<!-- alloc_percpu_blkmq_ctx -->
<g id="node3" class="node"><title>alloc_percpu_blkmq_ctx</title>
<ellipse fill="none" stroke="black" cx="98" cy="-518" rx="98.1881" ry="18"/>
<text text-anchor="middle" x="98" y="-514.3" font-family="Times,serif" font-size="14.00">alloc_percpu_blkmq_ctx</text>
</g>
<!-- blk_mq_init_queue&#45;&gt;alloc_percpu_blkmq_ctx -->
<g id="edge2" class="edge"><title>blk_mq_init_queue&#45;&gt;alloc_percpu_blkmq_ctx</title>
<path fill="none" stroke="black" d="M999.263,-603.734C873.672,-601.076 620.392,-593.103 407,-570 326.224,-561.255 234.465,-545.342 172.067,-533.609"/>
<polygon fill="black" stroke="black" points="172.402,-530.111 161.926,-531.691 171.101,-536.989 172.402,-530.111"/>
</g>
<!-- alloc_hctx -->
<g id="node5" class="node"><title>alloc_hctx</title>
<ellipse fill="none" stroke="black" cx="262" cy="-518" rx="47.169" ry="18"/>
<text text-anchor="middle" x="262" y="-514.3" font-family="Times,serif" font-size="14.00">alloc_hctx</text>
</g>
<!-- blk_mq_init_queue&#45;&gt;alloc_hctx -->
<g id="edge4" class="edge"><title>blk_mq_init_queue&#45;&gt;alloc_hctx</title>
<path fill="none" stroke="black" d="M1000.45,-602.062C895.888,-597.618 704,-587.76 541,-570 441.77,-559.188 416.391,-557.872 319,-536 314.919,-535.084 310.703,-534.032 306.497,-532.91"/>
<polygon fill="black" stroke="black" points="307.339,-529.512 296.767,-530.197 305.46,-536.254 307.339,-529.512"/>
<text text-anchor="middle" x="565.5" y="-558.3" font-family="Times,serif" font-size="14.00">nr_hw_q</text>
</g>
<!-- blk_alloc_queue_node -->
<g id="node7" class="node"><title>blk_alloc_queue_node</title>
<ellipse fill="none" stroke="black" cx="418" cy="-518" rx="90.0136" ry="18"/>
<text text-anchor="middle" x="418" y="-514.3" font-family="Times,serif" font-size="14.00">blk_alloc_queue_node</text>
</g>
<!-- blk_mq_init_queue&#45;&gt;blk_alloc_queue_node -->
<g id="edge6" class="edge"><title>blk_mq_init_queue&#45;&gt;blk_alloc_queue_node</title>
<path fill="none" stroke="black" d="M1002.85,-600.315C924.697,-594.95 798.923,-584.927 691,-570 621.083,-560.33 541.859,-545.042 486.834,-533.724"/>
<polygon fill="black" stroke="black" points="487.351,-530.257 476.849,-531.659 485.933,-537.112 487.351,-530.257"/>
<text text-anchor="middle" x="752" y="-558.3" font-family="Times,serif" font-size="14.00">backdev_info, counter</text>
</g>
<!-- blk_mq_make_queue_map -->
<g id="node9" class="node"><title>blk_mq_make_queue_map</title>
<ellipse fill="none" stroke="black" cx="634" cy="-518" rx="107.361" ry="18"/>
<text text-anchor="middle" x="634" y="-514.3" font-family="Times,serif" font-size="14.00">blk_mq_make_queue_map</text>
</g>
<!-- blk_mq_init_queue&#45;&gt;blk_mq_make_queue_map -->
<g id="edge8" class="edge"><title>blk_mq_init_queue&#45;&gt;blk_mq_make_queue_map</title>
<path fill="none" stroke="black" d="M1019.95,-593.757C940.963,-578.457 799.398,-551.036 711.427,-533.997"/>
<polygon fill="black" stroke="black" points="711.985,-530.54 701.502,-532.075 710.654,-537.413 711.985,-530.54"/>
</g>
<!-- blk_queue_make_request -->
<g id="node11" class="node"><title>blk_queue_make_request</title>
<ellipse fill="none" stroke="black" cx="860" cy="-518" rx="100.611" ry="18"/>
<text text-anchor="middle" x="860" y="-514.3" font-family="Times,serif" font-size="14.00">blk_queue_make_request</text>
</g>
<!-- blk_mq_init_queue&#45;&gt;blk_queue_make_request -->
<g id="edge10" class="edge"><title>blk_mq_init_queue&#45;&gt;blk_queue_make_request</title>
<path fill="none" stroke="black" d="M1040.03,-590.02C1003.74,-575.704 948.847,-554.05 909.219,-538.417"/>
<polygon fill="black" stroke="black" points="910.334,-535.094 899.747,-534.68 907.765,-541.606 910.334,-535.094"/>
<text text-anchor="middle" x="1030.5" y="-558.3" font-family="Times,serif" font-size="14.00">alternate req fn</text>
</g>
<!-- blk_queue_rq_timed_out -->
<g id="node13" class="node"><title>blk_queue_rq_timed_out</title>
<ellipse fill="none" stroke="black" cx="1078" cy="-518" rx="99.1619" ry="18"/>
<text text-anchor="middle" x="1078" y="-514.3" font-family="Times,serif" font-size="14.00">blk_queue_rq_timed_out</text>
</g>
<!-- blk_mq_init_queue&#45;&gt;blk_queue_rq_timed_out -->
<g id="edge12" class="edge"><title>blk_mq_init_queue&#45;&gt;blk_queue_rq_timed_out</title>
<path fill="none" stroke="black" d="M1078,-587.597C1078,-575.746 1078,-559.817 1078,-546.292"/>
<polygon fill="black" stroke="black" points="1081.5,-546.084 1078,-536.084 1074.5,-546.084 1081.5,-546.084"/>
<text text-anchor="middle" x="1107" y="-558.3" font-family="Times,serif" font-size="14.00">timeout fn</text>
</g>
<!-- blk_queue_rq_timeout -->
<g id="node15" class="node"><title>blk_queue_rq_timeout</title>
<ellipse fill="none" stroke="black" cx="1286" cy="-518" rx="90.4879" ry="18"/>
<text text-anchor="middle" x="1286" y="-514.3" font-family="Times,serif" font-size="14.00">blk_queue_rq_timeout</text>
</g>
<!-- blk_mq_init_queue&#45;&gt;blk_queue_rq_timeout -->
<g id="edge14" class="edge"><title>blk_mq_init_queue&#45;&gt;blk_queue_rq_timeout</title>
<path fill="none" stroke="black" d="M1114.71,-589.823C1149.29,-575.525 1201.26,-554.036 1238.89,-538.479"/>
<polygon fill="black" stroke="black" points="1240.7,-541.515 1248.61,-534.46 1238.03,-535.047 1240.7,-541.515"/>
<text text-anchor="middle" x="1232.5" y="-558.3" font-family="Times,serif" font-size="14.00">timeout val</text>
</g>
<!-- blk_mq_init_flush -->
<g id="node17" class="node"><title>blk_mq_init_flush</title>
<ellipse fill="none" stroke="black" cx="1471" cy="-518" rx="76.0649" ry="18"/>
<text text-anchor="middle" x="1471" y="-514.3" font-family="Times,serif" font-size="14.00">blk_mq_init_flush</text>
</g>
<!-- blk_mq_init_queue&#45;&gt;blk_mq_init_flush -->
<g id="edge16" class="edge"><title>blk_mq_init_queue&#45;&gt;blk_mq_init_flush</title>
<path fill="none" stroke="black" d="M1139.81,-594.645C1177.06,-588.147 1225.39,-579.267 1268,-570 1317.21,-559.298 1372.62,-545.239 1413.11,-534.592"/>
<polygon fill="black" stroke="black" points="1414.03,-537.969 1422.81,-532.032 1412.24,-531.201 1414.03,-537.969"/>
</g>
<!-- blk_mq_init_cpu_queues -->
<g id="node21" class="node"><title>blk_mq_init_cpu_queues</title>
<ellipse fill="none" stroke="black" cx="1665" cy="-518" rx="100.137" ry="18"/>
<text text-anchor="middle" x="1665" y="-514.3" font-family="Times,serif" font-size="14.00">blk_mq_init_cpu_queues</text>
</g>
<!-- blk_mq_init_queue&#45;&gt;blk_mq_init_cpu_queues -->
<g id="edge20" class="edge"><title>blk_mq_init_queue&#45;&gt;blk_mq_init_cpu_queues</title>
<path fill="none" stroke="black" d="M1143.37,-595.804C1235.45,-582.794 1408.62,-558.13 1556,-536 1564.53,-534.719 1573.44,-533.362 1582.32,-531.996"/>
<polygon fill="black" stroke="black" points="1582.97,-535.438 1592.31,-530.454 1581.9,-528.52 1582.97,-535.438"/>
<text text-anchor="middle" x="1454.5" y="-558.3" font-family="Times,serif" font-size="14.00">sw context</text>
</g>
<!-- blk_mq_init_hw_queues -->
<g id="node23" class="node"><title>blk_mq_init_hw_queues</title>
<ellipse fill="none" stroke="black" cx="1881" cy="-518" rx="98.212" ry="18"/>
<text text-anchor="middle" x="1881" y="-514.3" font-family="Times,serif" font-size="14.00">blk_mq_init_hw_queues</text>
</g>
<!-- blk_mq_init_queue&#45;&gt;blk_mq_init_hw_queues -->
<g id="edge22" class="edge"><title>blk_mq_init_queue&#45;&gt;blk_mq_init_hw_queues</title>
<path fill="none" stroke="black" d="M1151.76,-599.444C1233.9,-593.085 1370.56,-581.99 1488,-570 1615.34,-556.999 1647.21,-553.602 1774,-536 1782.6,-534.807 1791.57,-533.491 1800.5,-532.137"/>
<polygon fill="black" stroke="black" points="1801.2,-535.571 1810.55,-530.595 1800.14,-528.652 1801.2,-535.571"/>
<text text-anchor="middle" x="1666.5" y="-558.3" font-family="Times,serif" font-size="14.00">hw context</text>
</g>
<!-- blk_mq_map_swqueue -->
<g id="node36" class="node"><title>blk_mq_map_swqueue</title>
<ellipse fill="none" stroke="black" cx="2090" cy="-518" rx="92.413" ry="18"/>
<text text-anchor="middle" x="2090" y="-514.3" font-family="Times,serif" font-size="14.00">blk_mq_map_swqueue</text>
</g>
<!-- blk_mq_init_queue&#45;&gt;blk_mq_map_swqueue -->
<g id="edge35" class="edge"><title>blk_mq_init_queue&#45;&gt;blk_mq_map_swqueue</title>
<path fill="none" stroke="black" d="M1155.81,-602.174C1273.84,-597.539 1505.12,-587.088 1701,-570 1828.96,-558.837 1860.84,-554.119 1988,-536 1996.24,-534.826 2004.84,-533.52 2013.4,-532.168"/>
<polygon fill="black" stroke="black" points="2014.09,-535.602 2023.41,-530.564 2012.98,-528.69 2014.09,-535.602"/>
<text text-anchor="middle" x="1892" y="-558.3" font-family="Times,serif" font-size="14.00">map hw sw q</text>
</g>
<!-- bdi_init -->
<g id="node38" class="node"><title>bdi_init</title>
<ellipse fill="none" stroke="black" cx="309" cy="-430" rx="38.0212" ry="18"/>
<text text-anchor="middle" x="309" y="-426.3" font-family="Times,serif" font-size="14.00">bdi_init</text>
</g>
<!-- blk_alloc_queue_node&#45;&gt;bdi_init -->
<g id="edge37" class="edge"><title>blk_alloc_queue_node&#45;&gt;bdi_init</title>
<path fill="none" stroke="black" d="M396.984,-500.418C379.524,-486.643 354.578,-466.96 335.705,-452.07"/>
<polygon fill="black" stroke="black" points="337.787,-449.255 327.769,-445.808 333.452,-454.75 337.787,-449.255"/>
</g>
<!-- setup_timer -->
<g id="node40" class="node"><title>setup_timer</title>
<ellipse fill="none" stroke="black" cx="418" cy="-430" rx="52.4675" ry="18"/>
<text text-anchor="middle" x="418" y="-426.3" font-family="Times,serif" font-size="14.00">setup_timer</text>
</g>
<!-- blk_alloc_queue_node&#45;&gt;setup_timer -->
<g id="edge39" class="edge"><title>blk_alloc_queue_node&#45;&gt;setup_timer</title>
<path fill="none" stroke="black" d="M418,-499.597C418,-487.746 418,-471.817 418,-458.292"/>
<polygon fill="black" stroke="black" points="421.5,-458.084 418,-448.084 414.5,-458.084 421.5,-458.084"/>
</g>
<!-- blkcg_init_queue -->
<g id="node42" class="node"><title>blkcg_init_queue</title>
<ellipse fill="none" stroke="black" cx="560" cy="-430" rx="71.2405" ry="18"/>
<text text-anchor="middle" x="560" y="-426.3" font-family="Times,serif" font-size="14.00">blkcg_init_queue</text>
</g>
<!-- blk_alloc_queue_node&#45;&gt;blkcg_init_queue -->
<g id="edge41" class="edge"><title>blk_alloc_queue_node&#45;&gt;blkcg_init_queue</title>
<path fill="none" stroke="black" d="M445.043,-500.622C467.69,-486.906 500.174,-467.233 524.838,-452.295"/>
<polygon fill="black" stroke="black" points="526.798,-455.2 533.538,-447.026 523.171,-449.213 526.798,-455.2"/>
</g>
<!-- blk_mq_run_request -->
<g id="node19" class="node"><title>blk_mq_run_request</title>
<ellipse fill="none" stroke="black" cx="1471" cy="-430" rx="83.2649" ry="18"/>
<text text-anchor="middle" x="1471" y="-426.3" font-family="Times,serif" font-size="14.00">blk_mq_run_request</text>
</g>
<!-- blk_mq_init_flush&#45;&gt;blk_mq_run_request -->
<g id="edge18" class="edge"><title>blk_mq_init_flush&#45;&gt;blk_mq_run_request</title>
<path fill="none" stroke="black" d="M1471,-499.597C1471,-487.746 1471,-471.817 1471,-458.292"/>
<polygon fill="black" stroke="black" points="1474.5,-458.084 1471,-448.084 1467.5,-458.084 1474.5,-458.084"/>
<text text-anchor="middle" x="1508" y="-470.3" font-family="Times,serif" font-size="14.00">delayed work</text>
</g>
<!-- blk_mq_work_fn -->
<g id="node25" class="node"><title>blk_mq_work_fn</title>
<ellipse fill="none" stroke="black" cx="1830" cy="-430" rx="72.2155" ry="18"/>
<text text-anchor="middle" x="1830" y="-426.3" font-family="Times,serif" font-size="14.00">blk_mq_work_fn</text>
</g>
<!-- blk_mq_init_hw_queues&#45;&gt;blk_mq_work_fn -->
<g id="edge24" class="edge"><title>blk_mq_init_hw_queues&#45;&gt;blk_mq_work_fn</title>
<path fill="none" stroke="black" d="M1870.92,-500.009C1863.59,-487.641 1853.53,-470.675 1845.22,-456.661"/>
<polygon fill="black" stroke="black" points="1848.17,-454.772 1840.06,-447.956 1842.15,-458.342 1848.17,-454.772"/>
</g>
<!-- blk_mq_init_rq_map -->
<g id="node30" class="node"><title>blk_mq_init_rq_map</title>
<ellipse fill="none" stroke="black" cx="2006" cy="-430" rx="85.19" ry="18"/>
<text text-anchor="middle" x="2006" y="-426.3" font-family="Times,serif" font-size="14.00">blk_mq_init_rq_map</text>
</g>
<!-- blk_mq_init_hw_queues&#45;&gt;blk_mq_init_rq_map -->
<g id="edge29" class="edge"><title>blk_mq_init_hw_queues&#45;&gt;blk_mq_init_rq_map</title>
<path fill="none" stroke="black" d="M1905.1,-500.418C1924.56,-487.034 1952.11,-468.074 1973.51,-453.35"/>
<polygon fill="black" stroke="black" points="1975.72,-456.082 1981.97,-447.531 1971.75,-450.315 1975.72,-456.082"/>
</g>
<!-- __blk_mq_run_hw_queue -->
<g id="node26" class="node"><title>__blk_mq_run_hw_queue</title>
<ellipse fill="none" stroke="black" cx="1830" cy="-342" rx="103.012" ry="18"/>
<text text-anchor="middle" x="1830" y="-338.3" font-family="Times,serif" font-size="14.00">__blk_mq_run_hw_queue</text>
</g>
<!-- blk_mq_work_fn&#45;&gt;__blk_mq_run_hw_queue -->
<g id="edge25" class="edge"><title>blk_mq_work_fn&#45;&gt;__blk_mq_run_hw_queue</title>
<path fill="none" stroke="black" d="M1830,-411.597C1830,-399.746 1830,-383.817 1830,-370.292"/>
<polygon fill="black" stroke="black" points="1833.5,-370.084 1830,-360.084 1826.5,-370.084 1833.5,-370.084"/>
</g>
<!-- blk_mq_start_request -->
<g id="node28" class="node"><title>blk_mq_start_request</title>
<ellipse fill="none" stroke="black" cx="1830" cy="-254" rx="87.1385" ry="18"/>
<text text-anchor="middle" x="1830" y="-250.3" font-family="Times,serif" font-size="14.00">blk_mq_start_request</text>
</g>
<!-- __blk_mq_run_hw_queue&#45;&gt;blk_mq_start_request -->
<g id="edge27" class="edge"><title>__blk_mq_run_hw_queue&#45;&gt;blk_mq_start_request</title>
<path fill="none" stroke="black" d="M1830,-323.597C1830,-311.746 1830,-295.817 1830,-282.292"/>
<polygon fill="black" stroke="black" points="1833.5,-282.084 1830,-272.084 1826.5,-282.084 1833.5,-282.084"/>
<text text-anchor="middle" x="1899.5" y="-294.3" font-family="Times,serif" font-size="14.00">get mapped sw q and run</text>
</g>
<!-- blk_rq_init -->
<g id="node32" class="node"><title>blk_rq_init</title>
<ellipse fill="none" stroke="black" cx="2003" cy="-342" rx="50.0684" ry="18"/>
<text text-anchor="middle" x="2003" y="-338.3" font-family="Times,serif" font-size="14.00">blk_rq_init</text>
</g>
<!-- blk_mq_init_rq_map&#45;&gt;blk_rq_init -->
<g id="edge31" class="edge"><title>blk_mq_init_rq_map&#45;&gt;blk_rq_init</title>
<path fill="none" stroke="black" d="M2005.39,-411.597C2004.98,-399.746 2004.42,-383.817 2003.95,-370.292"/>
<polygon fill="black" stroke="black" points="2007.44,-369.956 2003.6,-360.084 2000.45,-370.2 2007.44,-369.956"/>
<text text-anchor="middle" x="2029" y="-382.3" font-family="Times,serif" font-size="14.00">fill req q</text>
</g>
<!-- blk_mq_init_tags -->
<g id="node34" class="node"><title>blk_mq_init_tags</title>
<ellipse fill="none" stroke="black" cx="2144" cy="-342" rx="72.192" ry="18"/>
<text text-anchor="middle" x="2144" y="-338.3" font-family="Times,serif" font-size="14.00">blk_mq_init_tags</text>
</g>
<!-- blk_mq_init_rq_map&#45;&gt;blk_mq_init_tags -->
<g id="edge33" class="edge"><title>blk_mq_init_rq_map&#45;&gt;blk_mq_init_tags</title>
<path fill="none" stroke="black" d="M2031.96,-412.824C2053.93,-399.13 2085.6,-379.394 2109.67,-364.395"/>
<polygon fill="black" stroke="black" points="2111.52,-367.363 2118.16,-359.103 2107.82,-361.422 2111.52,-367.363"/>
</g>
<!-- blk_throtl_init -->
<g id="node43" class="node"><title>blk_throtl_init</title>
<ellipse fill="none" stroke="black" cx="560" cy="-342" rx="61.6163" ry="18"/>
<text text-anchor="middle" x="560" y="-338.3" font-family="Times,serif" font-size="14.00">blk_throtl_init</text>
</g>
<!-- blkcg_init_queue&#45;&gt;blk_throtl_init -->
<g id="edge42" class="edge"><title>blkcg_init_queue&#45;&gt;blk_throtl_init</title>
<path fill="none" stroke="black" d="M560,-411.597C560,-399.746 560,-383.817 560,-370.292"/>
<polygon fill="black" stroke="black" points="563.5,-370.084 560,-360.084 556.5,-370.084 563.5,-370.084"/>
</g>
<!-- throtl_service_queue_init -->
<g id="node44" class="node"><title>throtl_service_queue_init</title>
<ellipse fill="none" stroke="black" cx="560" cy="-254" rx="100.611" ry="18"/>
<text text-anchor="middle" x="560" y="-250.3" font-family="Times,serif" font-size="14.00">throtl_service_queue_init</text>
</g>
<!-- blk_throtl_init&#45;&gt;throtl_service_queue_init -->
<g id="edge43" class="edge"><title>blk_throtl_init&#45;&gt;throtl_service_queue_init</title>
<path fill="none" stroke="black" d="M560,-323.597C560,-311.746 560,-295.817 560,-282.292"/>
<polygon fill="black" stroke="black" points="563.5,-282.084 560,-272.084 556.5,-282.084 563.5,-282.084"/>
</g>
<!-- blkg_alloc -->
<g id="node45" class="node"><title>blkg_alloc</title>
<ellipse fill="none" stroke="black" cx="560" cy="-180" rx="48.1437" ry="18"/>
<text text-anchor="middle" x="560" y="-176.3" font-family="Times,serif" font-size="14.00">blkg_alloc</text>
</g>
<!-- throtl_service_queue_init&#45;&gt;blkg_alloc -->
<g id="edge44" class="edge"><title>throtl_service_queue_init&#45;&gt;blkg_alloc</title>
<path fill="none" stroke="black" d="M560,-235.937C560,-227.807 560,-217.876 560,-208.705"/>
<polygon fill="black" stroke="black" points="563.5,-208.441 560,-198.441 556.5,-208.441 563.5,-208.441"/>
</g>
<!-- blkcg_activate_policy -->
<g id="node46" class="node"><title>blkcg_activate_policy</title>
<ellipse fill="none" stroke="black" cx="560" cy="-106" rx="88.0886" ry="18"/>
<text text-anchor="middle" x="560" y="-102.3" font-family="Times,serif" font-size="14.00">blkcg_activate_policy</text>
</g>
<!-- blkg_alloc&#45;&gt;blkcg_activate_policy -->
<g id="edge45" class="edge"><title>blkg_alloc&#45;&gt;blkcg_activate_policy</title>
<path fill="none" stroke="black" d="M560,-161.937C560,-153.807 560,-143.876 560,-134.705"/>
<polygon fill="black" stroke="black" points="563.5,-134.441 560,-124.441 556.5,-134.441 563.5,-134.441"/>
</g>
<!-- blk_queue_bypass_start -->
<g id="node48" class="node"><title>blk_queue_bypass_start</title>
<ellipse fill="none" stroke="black" cx="560" cy="-18" rx="94.338" ry="18"/>
<text text-anchor="middle" x="560" y="-14.3" font-family="Times,serif" font-size="14.00">blk_queue_bypass_start</text>
</g>
<!-- blkcg_activate_policy&#45;&gt;blk_queue_bypass_start -->
<g id="edge47" class="edge"><title>blkcg_activate_policy&#45;&gt;blk_queue_bypass_start</title>
<path fill="none" stroke="black" d="M560,-87.5966C560,-75.7459 560,-59.8169 560,-46.2917"/>
<polygon fill="black" stroke="black" points="563.5,-46.084 560,-36.084 556.5,-46.084 563.5,-46.084"/>
<text text-anchor="middle" x="574" y="-58.3" font-family="Times,serif" font-size="14.00">drain</text>
</g>
</g>
</svg>
