<?xml version="1.0" encoding="UTF-8" standalone="no"?>
<!DOCTYPE svg PUBLIC "-//W3C//DTD SVG 1.1//EN"
 "http://www.w3.org/Graphics/SVG/1.1/DTD/svg11.dtd">
<!-- Generated by graphviz version 2.28.0 (20120228.1928)
 -->
<!-- Title: G Pages: 1 -->
<svg width="1266pt" height="456pt"
 viewBox="0.00 0.00 1266.00 456.00" xmlns="http://www.w3.org/2000/svg" xmlns:xlink="http://www.w3.org/1999/xlink">
<g id="graph1" class="graph" transform="scale(1 1) rotate(0) translate(4 452)">
<title>G</title>
<polygon fill="white" stroke="white" points="-4,5 -4,-452 1263,-452 1263,5 -4,5"/>
<!-- blk_throtl_dispatch_work_fn -->
<g id="node1" class="node"><title>blk_throtl_dispatch_work_fn</title>
<ellipse fill="none" stroke="black" cx="472" cy="-430" rx="113.135" ry="18"/>
<text text-anchor="middle" x="472" y="-426.3" font-family="Times,serif" font-size="14.00">blk_throtl_dispatch_work_fn</text>
</g>
<!-- blk_start_plug -->
<g id="node3" class="node"><title>blk_start_plug</title>
<ellipse fill="none" stroke="black" cx="302" cy="-342" rx="61.6163" ry="18"/>
<text text-anchor="middle" x="302" y="-338.3" font-family="Times,serif" font-size="14.00">blk_start_plug</text>
</g>
<!-- blk_throtl_dispatch_work_fn&#45;&gt;blk_start_plug -->
<g id="edge2" class="edge"><title>blk_throtl_dispatch_work_fn&#45;&gt;blk_start_plug</title>
<path fill="none" stroke="black" d="M439.624,-412.622C411.459,-398.374 370.586,-377.697 340.701,-362.578"/>
<polygon fill="black" stroke="black" points="341.918,-359.271 331.415,-357.88 338.758,-365.518 341.918,-359.271"/>
</g>
<!-- generic_make_request -->
<g id="node5" class="node"><title>generic_make_request</title>
<ellipse fill="none" stroke="black" cx="472" cy="-342" rx="90.0136" ry="18"/>
<text text-anchor="middle" x="472" y="-338.3" font-family="Times,serif" font-size="14.00">generic_make_request</text>
</g>
<!-- blk_throtl_dispatch_work_fn&#45;&gt;generic_make_request -->
<g id="edge4" class="edge"><title>blk_throtl_dispatch_work_fn&#45;&gt;generic_make_request</title>
<path fill="none" stroke="black" d="M472,-411.597C472,-399.746 472,-383.817 472,-370.292"/>
<polygon fill="black" stroke="black" points="475.5,-370.084 472,-360.084 468.5,-370.084 475.5,-370.084"/>
</g>
<!-- blk_finish_plug -->
<g id="node7" class="node"><title>blk_finish_plug</title>
<ellipse fill="none" stroke="black" cx="647" cy="-342" rx="65.9423" ry="18"/>
<text text-anchor="middle" x="647" y="-338.3" font-family="Times,serif" font-size="14.00">blk_finish_plug</text>
</g>
<!-- blk_throtl_dispatch_work_fn&#45;&gt;blk_finish_plug -->
<g id="edge6" class="edge"><title>blk_throtl_dispatch_work_fn&#45;&gt;blk_finish_plug</title>
<path fill="none" stroke="black" d="M505.328,-412.622C534.357,-398.356 576.5,-377.646 607.274,-362.523"/>
<polygon fill="black" stroke="black" points="609.001,-365.574 616.432,-358.022 605.914,-359.291 609.001,-365.574"/>
</g>
<!-- throtl_pending_timer_fn -->
<g id="node8" class="node"><title>throtl_pending_timer_fn</title>
<ellipse fill="none" stroke="black" cx="979" cy="-430" rx="97.237" ry="18"/>
<text text-anchor="middle" x="979" y="-426.3" font-family="Times,serif" font-size="14.00">throtl_pending_timer_fn</text>
</g>
<!-- throtl_select_dispatch -->
<g id="node10" class="node"><title>throtl_select_dispatch</title>
<ellipse fill="none" stroke="black" cx="819" cy="-342" rx="87.613" ry="18"/>
<text text-anchor="middle" x="819" y="-338.3" font-family="Times,serif" font-size="14.00">throtl_select_dispatch</text>
</g>
<!-- throtl_pending_timer_fn&#45;&gt;throtl_select_dispatch -->
<g id="edge8" class="edge"><title>throtl_pending_timer_fn&#45;&gt;throtl_select_dispatch</title>
<path fill="none" stroke="black" d="M948.905,-412.824C923.124,-398.966 885.829,-378.92 857.807,-363.859"/>
<polygon fill="black" stroke="black" points="859.154,-360.609 848.689,-358.958 855.84,-366.775 859.154,-360.609"/>
</g>
<!-- throtl_schedule_next_dispatch -->
<g id="node12" class="node"><title>throtl_schedule_next_dispatch</title>
<ellipse fill="none" stroke="black" cx="1043" cy="-342" rx="117.935" ry="18"/>
<text text-anchor="middle" x="1043" y="-338.3" font-family="Times,serif" font-size="14.00">throtl_schedule_next_dispatch</text>
</g>
<!-- throtl_pending_timer_fn&#45;&gt;throtl_schedule_next_dispatch -->
<g id="edge10" class="edge"><title>throtl_pending_timer_fn&#45;&gt;throtl_schedule_next_dispatch</title>
<path fill="none" stroke="black" d="M991.644,-412.009C1000.94,-399.524 1013.72,-382.352 1024.2,-368.261"/>
<polygon fill="black" stroke="black" points="1027.22,-370.067 1030.38,-359.956 1021.6,-365.888 1027.22,-370.067"/>
<text text-anchor="middle" x="1051.5" y="-382.3" font-family="Times,serif" font-size="14.00">sq/parent_sq</text>
</g>
<!-- throtl_dequeue_tg -->
<g id="node14" class="node"><title>throtl_dequeue_tg</title>
<ellipse fill="none" stroke="black" cx="735" cy="-268" rx="74.6146" ry="18"/>
<text text-anchor="middle" x="735" y="-264.3" font-family="Times,serif" font-size="14.00">throtl_dequeue_tg</text>
</g>
<!-- throtl_select_dispatch&#45;&gt;throtl_dequeue_tg -->
<g id="edge12" class="edge"><title>throtl_select_dispatch&#45;&gt;throtl_dequeue_tg</title>
<path fill="none" stroke="black" d="M799.518,-324.301C788.386,-314.759 774.257,-302.649 762.061,-292.195"/>
<polygon fill="black" stroke="black" points="764.247,-289.459 754.377,-285.609 759.692,-294.774 764.247,-289.459"/>
</g>
<!-- throtl_dispatch_tg -->
<g id="node16" class="node"><title>throtl_dispatch_tg</title>
<ellipse fill="none" stroke="black" cx="902" cy="-268" rx="74.6146" ry="18"/>
<text text-anchor="middle" x="902" y="-264.3" font-family="Times,serif" font-size="14.00">throtl_dispatch_tg</text>
</g>
<!-- throtl_select_dispatch&#45;&gt;throtl_dispatch_tg -->
<g id="edge14" class="edge"><title>throtl_select_dispatch&#45;&gt;throtl_dispatch_tg</title>
<path fill="none" stroke="black" d="M838.25,-324.301C849.25,-314.759 863.21,-302.649 875.261,-292.195"/>
<polygon fill="black" stroke="black" points="877.593,-294.805 882.854,-285.609 873.007,-289.518 877.593,-294.805"/>
</g>
<!-- tg_may_dispatch -->
<g id="node18" class="node"><title>tg_may_dispatch</title>
<ellipse fill="none" stroke="black" cx="516" cy="-180" rx="71.2405" ry="18"/>
<text text-anchor="middle" x="516" y="-176.3" font-family="Times,serif" font-size="14.00">tg_may_dispatch</text>
</g>
<!-- throtl_dispatch_tg&#45;&gt;tg_may_dispatch -->
<g id="edge16" class="edge"><title>throtl_dispatch_tg&#45;&gt;tg_may_dispatch</title>
<path fill="none" stroke="black" d="M849.138,-255.222C778.198,-239.417 652.454,-211.402 577.402,-194.68"/>
<polygon fill="black" stroke="black" points="578.131,-191.257 567.609,-192.498 576.608,-198.089 578.131,-191.257"/>
<text text-anchor="middle" x="801" y="-220.3" font-family="Times,serif" font-size="14.00">75% read 25% write</text>
</g>
<!-- tg_dispatch_one_bio -->
<g id="node20" class="node"><title>tg_dispatch_one_bio</title>
<ellipse fill="none" stroke="black" cx="1049" cy="-180" rx="83.2649" ry="18"/>
<text text-anchor="middle" x="1049" y="-176.3" font-family="Times,serif" font-size="14.00">tg_dispatch_one_bio</text>
</g>
<!-- throtl_dispatch_tg&#45;&gt;tg_dispatch_one_bio -->
<g id="edge18" class="edge"><title>throtl_dispatch_tg&#45;&gt;tg_dispatch_one_bio</title>
<path fill="none" stroke="black" d="M929.305,-251.026C952.775,-237.295 986.814,-217.381 1012.6,-202.297"/>
<polygon fill="black" stroke="black" points="1014.48,-205.251 1021.34,-197.181 1010.94,-199.209 1014.48,-205.251"/>
</g>
<!-- throtl_slice_used -->
<g id="node22" class="node"><title>throtl_slice_used</title>
<ellipse fill="none" stroke="black" cx="70" cy="-92" rx="70.2668" ry="18"/>
<text text-anchor="middle" x="70" y="-88.3" font-family="Times,serif" font-size="14.00">throtl_slice_used</text>
</g>
<!-- tg_may_dispatch&#45;&gt;throtl_slice_used -->
<g id="edge20" class="edge"><title>tg_may_dispatch&#45;&gt;throtl_slice_used</title>
<path fill="none" stroke="black" d="M459.804,-168.821C387.895,-155.701 259.522,-131.958 150,-110 144.203,-108.838 138.175,-107.604 132.145,-106.352"/>
<polygon fill="black" stroke="black" points="132.539,-102.859 122.035,-104.239 131.107,-109.711 132.539,-102.859"/>
</g>
<!-- throtl_start_new_slice -->
<g id="node24" class="node"><title>throtl_start_new_slice</title>
<ellipse fill="none" stroke="black" cx="248" cy="-92" rx="89.0632" ry="18"/>
<text text-anchor="middle" x="248" y="-88.3" font-family="Times,serif" font-size="14.00">throtl_start_new_slice</text>
</g>
<!-- tg_may_dispatch&#45;&gt;throtl_start_new_slice -->
<g id="edge22" class="edge"><title>tg_may_dispatch&#45;&gt;throtl_start_new_slice</title>
<path fill="none" stroke="black" d="M473.83,-165.468C427.811,-150.701 353.952,-126.999 303.311,-110.749"/>
<polygon fill="black" stroke="black" points="304.099,-107.326 293.508,-107.603 301.961,-113.992 304.099,-107.326"/>
</g>
<!-- throtl_extend_slice -->
<g id="node26" class="node"><title>throtl_extend_slice</title>
<ellipse fill="none" stroke="black" cx="433" cy="-92" rx="77.4897" ry="18"/>
<text text-anchor="middle" x="433" y="-88.3" font-family="Times,serif" font-size="14.00">throtl_extend_slice</text>
</g>
<!-- tg_may_dispatch&#45;&gt;throtl_extend_slice -->
<g id="edge24" class="edge"><title>tg_may_dispatch&#45;&gt;throtl_extend_slice</title>
<path fill="none" stroke="black" d="M499.997,-162.418C487.675,-149.652 470.458,-131.812 456.563,-117.415"/>
<polygon fill="black" stroke="black" points="458.7,-114.589 449.237,-109.824 453.663,-119.45 458.7,-114.589"/>
</g>
<!-- tg_with_in_bps_limit -->
<g id="node28" class="node"><title>tg_with_in_bps_limit</title>
<ellipse fill="none" stroke="black" cx="616" cy="-92" rx="87.1385" ry="18"/>
<text text-anchor="middle" x="616" y="-88.3" font-family="Times,serif" font-size="14.00">tg_with_in_bps_limit</text>
</g>
<!-- tg_may_dispatch&#45;&gt;tg_with_in_bps_limit -->
<g id="edge26" class="edge"><title>tg_may_dispatch&#45;&gt;tg_with_in_bps_limit</title>
<path fill="none" stroke="black" d="M535.281,-162.418C550.401,-149.415 571.64,-131.15 588.537,-116.618"/>
<polygon fill="black" stroke="black" points="591.137,-118.998 596.437,-109.824 586.573,-113.691 591.137,-118.998"/>
</g>
<!-- tg_with_in_iops_limit -->
<g id="node30" class="node"><title>tg_with_in_iops_limit</title>
<ellipse fill="none" stroke="black" cx="810" cy="-92" rx="89.0632" ry="18"/>
<text text-anchor="middle" x="810" y="-88.3" font-family="Times,serif" font-size="14.00">tg_with_in_iops_limit</text>
</g>
<!-- tg_may_dispatch&#45;&gt;tg_with_in_iops_limit -->
<g id="edge28" class="edge"><title>tg_may_dispatch&#45;&gt;tg_with_in_iops_limit</title>
<path fill="none" stroke="black" d="M560.652,-165.938C611.72,-151 695.504,-126.492 751.687,-110.057"/>
<polygon fill="black" stroke="black" points="752.88,-113.355 761.496,-107.188 750.915,-106.637 752.88,-113.355"/>
</g>
<!-- throtl_add_bio_tg -->
<g id="node32" class="node"><title>throtl_add_bio_tg</title>
<ellipse fill="none" stroke="black" cx="990" cy="-92" rx="73.1654" ry="18"/>
<text text-anchor="middle" x="990" y="-88.3" font-family="Times,serif" font-size="14.00">throtl_add_bio_tg</text>
</g>
<!-- tg_dispatch_one_bio&#45;&gt;throtl_add_bio_tg -->
<g id="edge30" class="edge"><title>tg_dispatch_one_bio&#45;&gt;throtl_add_bio_tg</title>
<path fill="none" stroke="black" d="M1026.96,-162.422C1020.87,-157.05 1014.67,-150.727 1010,-144 1004.91,-136.667 1000.87,-127.857 997.784,-119.638"/>
<polygon fill="black" stroke="black" points="1001.05,-118.369 994.494,-110.045 994.427,-120.64 1001.05,-118.369"/>
<text text-anchor="middle" x="1043.5" y="-132.3" font-family="Times,serif" font-size="14.00">parent is tg?</text>
</g>
<!-- throtl_qnode_add_bio -->
<g id="node34" class="node"><title>throtl_qnode_add_bio</title>
<ellipse fill="none" stroke="black" cx="1059" cy="-18" rx="88.0886" ry="18"/>
<text text-anchor="middle" x="1059" y="-14.3" font-family="Times,serif" font-size="14.00">throtl_qnode_add_bio</text>
</g>
<!-- tg_dispatch_one_bio&#45;&gt;throtl_qnode_add_bio -->
<g id="edge32" class="edge"><title>tg_dispatch_one_bio&#45;&gt;throtl_qnode_add_bio</title>
<path fill="none" stroke="black" d="M1066.13,-162.272C1070.53,-156.896 1074.68,-150.609 1077,-144 1088.47,-111.306 1078.92,-71.3455 1069.93,-45.5469"/>
<polygon fill="black" stroke="black" points="1073.18,-44.2398 1066.43,-36.0719 1066.61,-46.6652 1073.18,-44.2398"/>
</g>
<!-- throtl_trim_slice -->
<g id="node36" class="node"><title>throtl_trim_slice</title>
<ellipse fill="none" stroke="black" cx="1189" cy="-92" rx="69.3156" ry="18"/>
<text text-anchor="middle" x="1189" y="-88.3" font-family="Times,serif" font-size="14.00">throtl_trim_slice</text>
</g>
<!-- tg_dispatch_one_bio&#45;&gt;throtl_trim_slice -->
<g id="edge34" class="edge"><title>tg_dispatch_one_bio&#45;&gt;throtl_trim_slice</title>
<path fill="none" stroke="black" d="M1075.33,-162.824C1097.77,-149.044 1130.16,-129.144 1154.63,-114.111"/>
<polygon fill="black" stroke="black" points="1156.57,-117.029 1163.26,-108.813 1152.91,-111.065 1156.57,-117.029"/>
</g>
<!-- throtl_add_bio_tg&#45;&gt;throtl_qnode_add_bio -->
<g id="edge36" class="edge"><title>throtl_add_bio_tg&#45;&gt;throtl_qnode_add_bio</title>
<path fill="none" stroke="black" d="M1006,-74.3008C1014.76,-65.1641 1025.77,-53.6726 1035.49,-43.5353"/>
<polygon fill="black" stroke="black" points="1038.21,-45.7502 1042.6,-36.1086 1033.16,-40.9069 1038.21,-45.7502"/>
</g>
</g>
</svg>
