<?xml version="1.0" encoding="UTF-8" standalone="no"?>
<!DOCTYPE svg PUBLIC "-//W3C//DTD SVG 1.1//EN"
 "http://www.w3.org/Graphics/SVG/1.1/DTD/svg11.dtd">
<!-- Generated by graphviz version 2.28.0 (20120228.1928)
 -->
<!-- Title: G Pages: 1 -->
<svg width="663pt" height="1806pt"
 viewBox="0.00 0.00 663.00 1806.00" xmlns="http://www.w3.org/2000/svg" xmlns:xlink="http://www.w3.org/1999/xlink">
<g id="graph1" class="graph" transform="scale(1 1) rotate(0) translate(4 1802)">
<title>G</title>
<polygon fill="white" stroke="white" points="-4,5 -4,-1802 660,-1802 660,5 -4,5"/>
<!-- cgroup_subsys -->
<g id="node1" class="node"><title>cgroup_subsys</title>
<polygon fill="none" stroke="black" points="180.5,-985 180.5,-1491 365.5,-1491 365.5,-985 180.5,-985"/>
<text text-anchor="middle" x="273" y="-1475.8" font-family="Times,serif" font-size="14.00">STRUCT CGROUP_SUBSYS</text>
<polyline fill="none" stroke="black" points="180.5,-1468 365.5,-1468 "/>
<text text-anchor="middle" x="273" y="-1452.8" font-family="Times,serif" font-size="14.00">css_alloc()</text>
<polyline fill="none" stroke="black" points="180.5,-1445 365.5,-1445 "/>
<text text-anchor="middle" x="273" y="-1429.8" font-family="Times,serif" font-size="14.00">css_online()</text>
<polyline fill="none" stroke="black" points="180.5,-1422 365.5,-1422 "/>
<text text-anchor="middle" x="273" y="-1406.8" font-family="Times,serif" font-size="14.00">css_offline()</text>
<polyline fill="none" stroke="black" points="180.5,-1399 365.5,-1399 "/>
<text text-anchor="middle" x="273" y="-1383.8" font-family="Times,serif" font-size="14.00">css_free()</text>
<polyline fill="none" stroke="black" points="180.5,-1376 365.5,-1376 "/>
<text text-anchor="middle" x="273" y="-1360.8" font-family="Times,serif" font-size="14.00">css_reset()</text>
<polyline fill="none" stroke="black" points="180.5,-1353 365.5,-1353 "/>
<text text-anchor="middle" x="273" y="-1337.8" font-family="Times,serif" font-size="14.00">can_attach()</text>
<polyline fill="none" stroke="black" points="180.5,-1330 365.5,-1330 "/>
<text text-anchor="middle" x="273" y="-1314.8" font-family="Times,serif" font-size="14.00">cancel_attach()</text>
<polyline fill="none" stroke="black" points="180.5,-1307 365.5,-1307 "/>
<text text-anchor="middle" x="273" y="-1291.8" font-family="Times,serif" font-size="14.00">attach()</text>
<polyline fill="none" stroke="black" points="180.5,-1284 365.5,-1284 "/>
<text text-anchor="middle" x="273" y="-1268.8" font-family="Times,serif" font-size="14.00">fork()</text>
<polyline fill="none" stroke="black" points="180.5,-1261 365.5,-1261 "/>
<text text-anchor="middle" x="273" y="-1245.8" font-family="Times,serif" font-size="14.00">exit()</text>
<polyline fill="none" stroke="black" points="180.5,-1238 365.5,-1238 "/>
<text text-anchor="middle" x="273" y="-1222.8" font-family="Times,serif" font-size="14.00">bind()</text>
<polyline fill="none" stroke="black" points="180.5,-1215 365.5,-1215 "/>
<text text-anchor="middle" x="273" y="-1199.8" font-family="Times,serif" font-size="14.00">disabled</text>
<polyline fill="none" stroke="black" points="180.5,-1192 365.5,-1192 "/>
<text text-anchor="middle" x="273" y="-1176.8" font-family="Times,serif" font-size="14.00">early_init</text>
<polyline fill="none" stroke="black" points="180.5,-1169 365.5,-1169 "/>
<text text-anchor="middle" x="273" y="-1153.8" font-family="Times,serif" font-size="14.00">broken_hierarchy</text>
<polyline fill="none" stroke="black" points="180.5,-1146 365.5,-1146 "/>
<text text-anchor="middle" x="273" y="-1130.8" font-family="Times,serif" font-size="14.00">warned_broken_hierarchy</text>
<polyline fill="none" stroke="black" points="180.5,-1123 365.5,-1123 "/>
<text text-anchor="middle" x="273" y="-1107.8" font-family="Times,serif" font-size="14.00">name</text>
<polyline fill="none" stroke="black" points="180.5,-1100 365.5,-1100 "/>
<text text-anchor="middle" x="273" y="-1084.8" font-family="Times,serif" font-size="14.00">cgroup_root *root</text>
<polyline fill="none" stroke="black" points="180.5,-1077 365.5,-1077 "/>
<text text-anchor="middle" x="273" y="-1061.8" font-family="Times,serif" font-size="14.00">list_head cfts</text>
<polyline fill="none" stroke="black" points="180.5,-1054 365.5,-1054 "/>
<text text-anchor="middle" x="273" y="-1038.8" font-family="Times,serif" font-size="14.00">cftype base_cftypes</text>
<polyline fill="none" stroke="black" points="180.5,-1031 365.5,-1031 "/>
<text text-anchor="middle" x="273" y="-1015.8" font-family="Times,serif" font-size="14.00">cftype default_cftypes</text>
<polyline fill="none" stroke="black" points="180.5,-1008 365.5,-1008 "/>
<text text-anchor="middle" x="273" y="-992.8" font-family="Times,serif" font-size="14.00">depends_on</text>
</g>
<!-- cgroup_root -->
<g id="node3" class="node"><title>cgroup_root</title>
<polygon fill="none" stroke="black" points="141,-666.5 141,-919.5 407,-919.5 407,-666.5 141,-666.5"/>
<text text-anchor="middle" x="274" y="-904.3" font-family="Times,serif" font-size="14.00">STRUCT CGROUP_ROOT</text>
<polyline fill="none" stroke="black" points="141,-896.5 407,-896.5 "/>
<text text-anchor="middle" x="274" y="-881.3" font-family="Times,serif" font-size="14.00">struct kernfs_root kf_root</text>
<polyline fill="none" stroke="black" points="141,-873.5 407,-873.5 "/>
<text text-anchor="middle" x="274" y="-858.3" font-family="Times,serif" font-size="14.00">subsys_mask</text>
<polyline fill="none" stroke="black" points="141,-850.5 407,-850.5 "/>
<text text-anchor="middle" x="274" y="-835.3" font-family="Times,serif" font-size="14.00">hierarchy_id</text>
<polyline fill="none" stroke="black" points="141,-827.5 407,-827.5 "/>
<text text-anchor="middle" x="274" y="-812.3" font-family="Times,serif" font-size="14.00">cgroup root_cgroup</text>
<polyline fill="none" stroke="black" points="141,-804.5 407,-804.5 "/>
<text text-anchor="middle" x="274" y="-789.3" font-family="Times,serif" font-size="14.00">number_of_cgroups</text>
<polyline fill="none" stroke="black" points="141,-781.5 407,-781.5 "/>
<text text-anchor="middle" x="274" y="-766.3" font-family="Times,serif" font-size="14.00">root_list</text>
<polyline fill="none" stroke="black" points="141,-758.5 407,-758.5 "/>
<text text-anchor="middle" x="274" y="-743.3" font-family="Times,serif" font-size="14.00">flags</text>
<polyline fill="none" stroke="black" points="141,-735.5 407,-735.5 "/>
<text text-anchor="middle" x="274" y="-720.3" font-family="Times,serif" font-size="14.00">cgroup_idr</text>
<polyline fill="none" stroke="black" points="141,-712.5 407,-712.5 "/>
<text text-anchor="middle" x="274" y="-697.3" font-family="Times,serif" font-size="14.00">release_agent_path[PATH_MAX]</text>
<polyline fill="none" stroke="black" points="141,-689.5 407,-689.5 "/>
<text text-anchor="middle" x="274" y="-674.3" font-family="Times,serif" font-size="14.00">name[MAX_CGROUP_ROOT_NAMELEN]</text>
</g>
<!-- cgroup_subsys&#45;&gt;cgroup_root -->
<g id="edge16" class="edge"><title>cgroup_subsys&#45;&gt;cgroup_root</title>
<path fill="none" stroke="black" d="M273.569,-984.764C273.612,-965.98 273.654,-947.497 273.693,-929.869"/>
<polygon fill="black" stroke="black" points="277.194,-929.601 273.716,-919.593 270.194,-929.585 277.194,-929.601"/>
</g>
<!-- cftype -->
<g id="node4" class="node"><title>cftype</title>
<polygon fill="none" stroke="black" points="-0.5,-655 -0.5,-931 122.5,-931 122.5,-655 -0.5,-655"/>
<text text-anchor="middle" x="61" y="-915.8" font-family="Times,serif" font-size="14.00">STRUCT CFTYPE</text>
<polyline fill="none" stroke="black" points="-0.5,-908 122.5,-908 "/>
<text text-anchor="middle" x="61" y="-892.8" font-family="Times,serif" font-size="14.00">name</text>
<polyline fill="none" stroke="black" points="-0.5,-885 122.5,-885 "/>
<text text-anchor="middle" x="61" y="-869.8" font-family="Times,serif" font-size="14.00">int private</text>
<polyline fill="none" stroke="black" points="-0.5,-862 122.5,-862 "/>
<text text-anchor="middle" x="61" y="-846.8" font-family="Times,serif" font-size="14.00">umode_t mode</text>
<polyline fill="none" stroke="black" points="-0.5,-839 122.5,-839 "/>
<text text-anchor="middle" x="61" y="-823.8" font-family="Times,serif" font-size="14.00">max_write_len</text>
<polyline fill="none" stroke="black" points="-0.5,-816 122.5,-816 "/>
<text text-anchor="middle" x="61" y="-800.8" font-family="Times,serif" font-size="14.00">flags</text>
<polyline fill="none" stroke="black" points="-0.5,-793 122.5,-793 "/>
<text text-anchor="middle" x="61" y="-777.8" font-family="Times,serif" font-size="14.00">cgroup_subsys *ss</text>
<polyline fill="none" stroke="black" points="-0.5,-770 122.5,-770 "/>
<text text-anchor="middle" x="61" y="-754.8" font-family="Times,serif" font-size="14.00">kernfs_ops *kf_ops</text>
<polyline fill="none" stroke="black" points="-0.5,-747 122.5,-747 "/>
<text text-anchor="middle" x="61" y="-731.8" font-family="Times,serif" font-size="14.00">read_u64()</text>
<polyline fill="none" stroke="black" points="-0.5,-724 122.5,-724 "/>
<text text-anchor="middle" x="61" y="-708.8" font-family="Times,serif" font-size="14.00">seq_show()</text>
<polyline fill="none" stroke="black" points="-0.5,-701 122.5,-701 "/>
<text text-anchor="middle" x="61" y="-685.8" font-family="Times,serif" font-size="14.00">write_u64()</text>
<polyline fill="none" stroke="black" points="-0.5,-678 122.5,-678 "/>
<text text-anchor="middle" x="61" y="-662.8" font-family="Times,serif" font-size="14.00">write()</text>
</g>
<!-- cgroup_subsys&#45;&gt;cftype -->
<g id="edge18" class="edge"><title>cgroup_subsys&#45;&gt;cftype</title>
<path fill="none" stroke="black" d="M180.436,-1057.45C161.663,-1018.65 142.322,-978.063 124.806,-940.695"/>
<polygon fill="black" stroke="black" points="127.803,-938.841 120.394,-931.267 121.463,-941.808 127.803,-938.841"/>
</g>
<!-- cgroup -->
<g id="node2" class="node"><title>cgroup</title>
<polygon fill="none" stroke="black" points="99,-247 99,-615 449,-615 449,-247 99,-247"/>
<text text-anchor="middle" x="274" y="-599.8" font-family="Times,serif" font-size="14.00">STRUCT CGROUP</text>
<polyline fill="none" stroke="black" points="99,-592 449,-592 "/>
<text text-anchor="middle" x="274" y="-576.8" font-family="Times,serif" font-size="14.00">cgroup_subsys_state self</text>
<polyline fill="none" stroke="black" points="99,-569 449,-569 "/>
<text text-anchor="middle" x="274" y="-553.8" font-family="Times,serif" font-size="14.00">flag</text>
<polyline fill="none" stroke="black" points="99,-546 449,-546 "/>
<text text-anchor="middle" x="274" y="-530.8" font-family="Times,serif" font-size="14.00">id</text>
<polyline fill="none" stroke="black" points="99,-523 449,-523 "/>
<text text-anchor="middle" x="274" y="-507.8" font-family="Times,serif" font-size="14.00">populated_cnt [=num_tasks + num_populated_child]</text>
<polyline fill="none" stroke="black" points="99,-500 449,-500 "/>
<text text-anchor="middle" x="274" y="-484.8" font-family="Times,serif" font-size="14.00">kernfs_node kn</text>
<polyline fill="none" stroke="black" points="99,-477 449,-477 "/>
<text text-anchor="middle" x="274" y="-461.8" font-family="Times,serif" font-size="14.00">kernfs_node populated_kn</text>
<polyline fill="none" stroke="black" points="99,-454 449,-454 "/>
<text text-anchor="middle" x="274" y="-438.8" font-family="Times,serif" font-size="14.00">subtree_control</text>
<polyline fill="none" stroke="black" points="99,-431 449,-431 "/>
<text text-anchor="middle" x="274" y="-415.8" font-family="Times,serif" font-size="14.00">child_subsys_mask</text>
<polyline fill="none" stroke="black" points="99,-408 449,-408 "/>
<text text-anchor="middle" x="274" y="-392.8" font-family="Times,serif" font-size="14.00">cgroup_subsys_state *subsys[CGROUP_SUBSYS_COUNT]</text>
<polyline fill="none" stroke="black" points="99,-385 449,-385 "/>
<text text-anchor="middle" x="274" y="-369.8" font-family="Times,serif" font-size="14.00">cgroup_root *root</text>
<polyline fill="none" stroke="black" points="99,-362 449,-362 "/>
<text text-anchor="middle" x="274" y="-346.8" font-family="Times,serif" font-size="14.00">list cset_links</text>
<polyline fill="none" stroke="black" points="99,-339 449,-339 "/>
<text text-anchor="middle" x="274" y="-323.8" font-family="Times,serif" font-size="14.00">e_csets[CGROUP_SUBSYS_COUNT]</text>
<polyline fill="none" stroke="black" points="99,-316 449,-316 "/>
<text text-anchor="middle" x="274" y="-300.8" font-family="Times,serif" font-size="14.00">release_list</text>
<polyline fill="none" stroke="black" points="99,-293 449,-293 "/>
<text text-anchor="middle" x="274" y="-277.8" font-family="Times,serif" font-size="14.00">pid_list</text>
<polyline fill="none" stroke="black" points="99,-270 449,-270 "/>
<text text-anchor="middle" x="274" y="-254.8" font-family="Times,serif" font-size="14.00">pid_list_mutex</text>
</g>
<!-- cgroup&#45;&gt;cgroup_root -->
<g id="edge20" class="edge"><title>cgroup&#45;&gt;cgroup_root</title>
<path fill="none" stroke="black" d="M280.749,-615.039C280.741,-628.868 280.68,-642.673 280.566,-656.127"/>
<polygon fill="black" stroke="black" points="277.065,-656.309 280.469,-666.342 284.064,-656.376 277.065,-656.309"/>
</g>
<!-- cgroup_subsys_state -->
<g id="node6" class="node"><title>cgroup_subsys_state</title>
<polygon fill="none" stroke="black" points="352.5,-0.5 352.5,-207.5 585.5,-207.5 585.5,-0.5 352.5,-0.5"/>
<text text-anchor="middle" x="469" y="-192.3" font-family="Times,serif" font-size="14.00">STRUCT CGROUP_SUBSYS_STATE</text>
<polyline fill="none" stroke="black" points="352.5,-184.5 585.5,-184.5 "/>
<text text-anchor="middle" x="469" y="-169.3" font-family="Times,serif" font-size="14.00">*cgroup</text>
<polyline fill="none" stroke="black" points="352.5,-161.5 585.5,-161.5 "/>
<text text-anchor="middle" x="469" y="-146.3" font-family="Times,serif" font-size="14.00">cgroup_subsys *ss</text>
<polyline fill="none" stroke="black" points="352.5,-138.5 585.5,-138.5 "/>
<text text-anchor="middle" x="469" y="-123.3" font-family="Times,serif" font-size="14.00">cgroup_subsys_state *parent</text>
<polyline fill="none" stroke="black" points="352.5,-115.5 585.5,-115.5 "/>
<text text-anchor="middle" x="469" y="-100.3" font-family="Times,serif" font-size="14.00">percpu_ref refcnt</text>
<polyline fill="none" stroke="black" points="352.5,-92.5 585.5,-92.5 "/>
<text text-anchor="middle" x="469" y="-77.3" font-family="Times,serif" font-size="14.00">id flags</text>
<polyline fill="none" stroke="black" points="352.5,-69.5 585.5,-69.5 "/>
<text text-anchor="middle" x="469" y="-54.3" font-family="Times,serif" font-size="14.00">destroy_work</text>
<polyline fill="none" stroke="black" points="352.5,-46.5 585.5,-46.5 "/>
<text text-anchor="middle" x="469" y="-31.3" font-family="Times,serif" font-size="14.00">list sibling</text>
<polyline fill="none" stroke="black" points="352.5,-23.5 585.5,-23.5 "/>
<text text-anchor="middle" x="469" y="-8.3" font-family="Times,serif" font-size="14.00">list children</text>
</g>
<!-- cgroup&#45;&gt;cgroup_subsys_state -->
<g id="edge24" class="edge"><title>cgroup&#45;&gt;cgroup_subsys_state</title>
<path fill="none" stroke="black" d="M377.337,-246.604C383.534,-236.359 389.699,-226.226 395.732,-216.373"/>
<polygon fill="black" stroke="black" points="398.752,-218.144 400.998,-207.79 392.785,-214.483 398.752,-218.144"/>
</g>
<!-- kernfs_node -->
<g id="node19" class="node"><title>kernfs_node</title>
<ellipse fill="none" stroke="black" cx="274" cy="-104" rx="53.4184" ry="18"/>
<text text-anchor="middle" x="274" y="-100.3" font-family="Times,serif" font-size="14.00">kernfs_node</text>
</g>
<!-- cgroup&#45;&gt;kernfs_node -->
<g id="edge22" class="edge"><title>cgroup&#45;&gt;kernfs_node</title>
<path fill="none" stroke="black" d="M274,-246.604C274,-201.754 274,-159.063 274,-132.505"/>
<polygon fill="black" stroke="black" points="277.5,-132.151 274,-122.151 270.5,-132.151 277.5,-132.151"/>
</g>
<!-- cgroup_root&#45;&gt;cgroup -->
<g id="edge8" class="edge"><title>cgroup_root&#45;&gt;cgroup</title>
<path fill="none" stroke="black" d="M267.531,-666.342C267.389,-652.958 267.3,-639.131 267.266,-625.198"/>
<polygon fill="black" stroke="black" points="270.766,-625.034 267.251,-615.039 263.766,-625.045 270.766,-625.034"/>
</g>
<!-- cftype&#45;&gt;cgroup_subsys -->
<g id="edge26" class="edge"><title>cftype&#45;&gt;cgroup_subsys</title>
<path fill="none" stroke="black" d="M122.534,-910.009C139.29,-943.958 157.844,-982.22 176.042,-1020.29"/>
<polygon fill="black" stroke="black" points="172.944,-1021.93 180.411,-1029.44 179.261,-1018.91 172.944,-1021.93"/>
</g>
<!-- css_set -->
<g id="node5" class="node"><title>css_set</title>
<polygon fill="none" stroke="black" points="377,-1544.5 377,-1797.5 655,-1797.5 655,-1544.5 377,-1544.5"/>
<text text-anchor="middle" x="516" y="-1782.3" font-family="Times,serif" font-size="14.00">STRUCT CSS_SET</text>
<polyline fill="none" stroke="black" points="377,-1774.5 655,-1774.5 "/>
<text text-anchor="middle" x="516" y="-1759.3" font-family="Times,serif" font-size="14.00">refcount</text>
<polyline fill="none" stroke="black" points="377,-1751.5 655,-1751.5 "/>
<text text-anchor="middle" x="516" y="-1736.3" font-family="Times,serif" font-size="14.00">hlist</text>
<polyline fill="none" stroke="black" points="377,-1728.5 655,-1728.5 "/>
<text text-anchor="middle" x="516" y="-1713.3" font-family="Times,serif" font-size="14.00">list tasks</text>
<polyline fill="none" stroke="black" points="377,-1705.5 655,-1705.5 "/>
<text text-anchor="middle" x="516" y="-1690.3" font-family="Times,serif" font-size="14.00">list migrating_tasks</text>
<polyline fill="none" stroke="black" points="377,-1682.5 655,-1682.5 "/>
<text text-anchor="middle" x="516" y="-1667.3" font-family="Times,serif" font-size="14.00">list cgrp_links</text>
<polyline fill="none" stroke="black" points="377,-1659.5 655,-1659.5 "/>
<text text-anchor="middle" x="516" y="-1644.3" font-family="Times,serif" font-size="14.00">cgroup dfl_cgroup</text>
<polyline fill="none" stroke="black" points="377,-1636.5 655,-1636.5 "/>
<text text-anchor="middle" x="516" y="-1621.3" font-family="Times,serif" font-size="14.00">cgroup_subsys [CGROUP_SUBSYS_COUNT]</text>
<polyline fill="none" stroke="black" points="377,-1613.5 655,-1613.5 "/>
<text text-anchor="middle" x="516" y="-1598.3" font-family="Times,serif" font-size="14.00">list e_cset_node[CGROUP_SUBSYS_COUNT]</text>
<polyline fill="none" stroke="black" points="377,-1590.5 655,-1590.5 "/>
<text text-anchor="middle" x="516" y="-1575.3" font-family="Times,serif" font-size="14.00">cgroup mg_src_cgrp</text>
<polyline fill="none" stroke="black" points="377,-1567.5 655,-1567.5 "/>
<text text-anchor="middle" x="516" y="-1552.3" font-family="Times,serif" font-size="14.00">css_set mg_dst_cset</text>
</g>
<!-- css_set&#45;&gt;cgroup_subsys -->
<g id="edge2" class="edge"><title>css_set&#45;&gt;cgroup_subsys</title>
<path fill="none" stroke="black" d="M445.225,-1544.47C421.91,-1503.12 395.557,-1456.38 370.605,-1412.12"/>
<polygon fill="black" stroke="black" points="373.595,-1410.29 365.634,-1403.3 367.497,-1413.73 373.595,-1410.29"/>
<text text-anchor="middle" x="452.5" y="-1514.3" font-family="Times,serif" font-size="14.00">array of</text>
</g>
<!-- css_set&#45;&gt;cgroup -->
<g id="edge4" class="edge"><title>css_set&#45;&gt;cgroup</title>
<path fill="none" stroke="black" d="M522.139,-1544.43C527.676,-1348.49 522.275,-960.681 416,-654 412.594,-644.172 408.674,-634.339 404.356,-624.579"/>
<polygon fill="black" stroke="black" points="407.434,-622.892 400.099,-615.246 401.065,-625.797 407.434,-622.892"/>
<text text-anchor="middle" x="513" y="-954.3" font-family="Times,serif" font-size="14.00">dfl_cgrp</text>
</g>
<!-- css_set&#45;&gt;cgroup_subsys_state -->
<g id="edge6" class="edge"><title>css_set&#45;&gt;cgroup_subsys_state</title>
<path fill="none" stroke="black" d="M542.841,-1544.28C558.816,-1458.66 576,-1342.5 576,-1239 576,-1239 576,-1239 576,-430 576,-356.547 551.036,-278.228 525.225,-216.88"/>
<polygon fill="black" stroke="black" points="528.394,-215.39 521.246,-207.57 521.957,-218.141 528.394,-215.39"/>
</g>
<!-- cgroup_subsys_state&#45;&gt;cgroup_subsys -->
<g id="edge10" class="edge"><title>cgroup_subsys_state&#45;&gt;cgroup_subsys</title>
<path fill="none" stroke="black" d="M476.657,-207.735C485.359,-366.603 489.943,-679.875 416,-932 404.115,-972.524 387.557,-1014.45 369.908,-1053.77"/>
<polygon fill="black" stroke="black" points="366.586,-1052.62 365.644,-1063.18 372.962,-1055.51 366.586,-1052.62"/>
</g>
<!-- cgroup_subsys_state&#45;&gt;cgroup -->
<g id="edge12" class="edge"><title>cgroup_subsys_state&#45;&gt;cgroup</title>
<path fill="none" stroke="black" d="M413.653,-207.79C407.934,-217.563 401.977,-227.671 395.884,-237.942"/>
<polygon fill="black" stroke="black" points="392.837,-236.22 390.738,-246.604 398.855,-239.795 392.837,-236.22"/>
</g>
<!-- cgroup_subsys_state&#45;&gt;cgroup_subsys_state -->
<g id="edge14" class="edge"><title>cgroup_subsys_state&#45;&gt;cgroup_subsys_state</title>
<path fill="none" stroke="black" d="M585.702,-122.178C596.321,-118.399 603,-112.34 603,-104 603,-98.3967 599.985,-93.8228 594.785,-90.2783"/>
<polygon fill="black" stroke="black" points="596.221,-87.0841 585.702,-85.8217 593.138,-93.3685 596.221,-87.0841"/>
</g>
<!-- css_task_iter -->
<g id="node7" class="node"><title>css_task_iter</title>
<polygon fill="none" stroke="black" points="183.5,-1590.5 183.5,-1751.5 358.5,-1751.5 358.5,-1590.5 183.5,-1590.5"/>
<text text-anchor="middle" x="271" y="-1736.3" font-family="Times,serif" font-size="14.00">STRUCT CSS_TASK_ITER</text>
<polyline fill="none" stroke="black" points="183.5,-1728.5 358.5,-1728.5 "/>
<text text-anchor="middle" x="271" y="-1713.3" font-family="Times,serif" font-size="14.00">cgroup_subsys ss</text>
<polyline fill="none" stroke="black" points="183.5,-1705.5 358.5,-1705.5 "/>
<text text-anchor="middle" x="271" y="-1690.3" font-family="Times,serif" font-size="14.00">list cset_pos</text>
<polyline fill="none" stroke="black" points="183.5,-1682.5 358.5,-1682.5 "/>
<text text-anchor="middle" x="271" y="-1667.3" font-family="Times,serif" font-size="14.00">list cset_head</text>
<polyline fill="none" stroke="black" points="183.5,-1659.5 358.5,-1659.5 "/>
<text text-anchor="middle" x="271" y="-1644.3" font-family="Times,serif" font-size="14.00">list tasks_pos</text>
<polyline fill="none" stroke="black" points="183.5,-1636.5 358.5,-1636.5 "/>
<text text-anchor="middle" x="271" y="-1621.3" font-family="Times,serif" font-size="14.00">list tasks_head</text>
<polyline fill="none" stroke="black" points="183.5,-1613.5 358.5,-1613.5 "/>
<text text-anchor="middle" x="271" y="-1598.3" font-family="Times,serif" font-size="14.00">list mg_tasks_head</text>
</g>
<!-- css_task_iter&#45;&gt;cgroup_subsys -->
<g id="edge28" class="edge"><title>css_task_iter&#45;&gt;cgroup_subsys</title>
<path fill="none" stroke="black" d="M271.369,-1590.45C271.491,-1564.21 271.634,-1533.44 271.783,-1501.2"/>
<polygon fill="black" stroke="black" points="275.283,-1501.17 271.83,-1491.16 268.283,-1501.14 275.283,-1501.17"/>
</g>
</g>
</svg>
