<?xml version="1.0" encoding="UTF-8" standalone="no"?>
<!DOCTYPE svg PUBLIC "-//W3C//DTD SVG 1.1//EN"
 "http://www.w3.org/Graphics/SVG/1.1/DTD/svg11.dtd">
<!-- Generated by graphviz version 2.28.0 (20120228.1928)
 -->
<!-- Title: G Pages: 1 -->
<svg width="488pt" height="1854pt"
 viewBox="0.00 0.00 487.54 1854.00" xmlns="http://www.w3.org/2000/svg" xmlns:xlink="http://www.w3.org/1999/xlink">
<g id="graph1" class="graph" transform="scale(1 1) rotate(0) translate(4 1850)">
<title>G</title>
<polygon fill="white" stroke="white" points="-4,5 -4,-1850 484.54,-1850 484.54,5 -4,5"/>
<!-- cgroup_subsys -->
<g id="node1" class="node"><title>cgroup_subsys</title>
<polygon fill="none" stroke="black" points="295.04,-1011 295.04,-1517 480.04,-1517 480.04,-1011 295.04,-1011"/>
<text text-anchor="middle" x="387.54" y="-1501.8" font-family="Times,serif" font-size="14.00">STRUCT CGROUP_SUBSYS</text>
<polyline fill="none" stroke="black" points="295.04,-1494 480.04,-1494 "/>
<text text-anchor="middle" x="387.54" y="-1478.8" font-family="Times,serif" font-size="14.00">css_alloc()</text>
<polyline fill="none" stroke="black" points="295.04,-1471 480.04,-1471 "/>
<text text-anchor="middle" x="387.54" y="-1455.8" font-family="Times,serif" font-size="14.00">css_online()</text>
<polyline fill="none" stroke="black" points="295.04,-1448 480.04,-1448 "/>
<text text-anchor="middle" x="387.54" y="-1432.8" font-family="Times,serif" font-size="14.00">css_offline()</text>
<polyline fill="none" stroke="black" points="295.04,-1425 480.04,-1425 "/>
<text text-anchor="middle" x="387.54" y="-1409.8" font-family="Times,serif" font-size="14.00">css_free()</text>
<polyline fill="none" stroke="black" points="295.04,-1402 480.04,-1402 "/>
<text text-anchor="middle" x="387.54" y="-1386.8" font-family="Times,serif" font-size="14.00">can_attach()</text>
<polyline fill="none" stroke="black" points="295.04,-1379 480.04,-1379 "/>
<text text-anchor="middle" x="387.54" y="-1363.8" font-family="Times,serif" font-size="14.00">cancel_attach()</text>
<polyline fill="none" stroke="black" points="295.04,-1356 480.04,-1356 "/>
<text text-anchor="middle" x="387.54" y="-1340.8" font-family="Times,serif" font-size="14.00">attach()</text>
<polyline fill="none" stroke="black" points="295.04,-1333 480.04,-1333 "/>
<text text-anchor="middle" x="387.54" y="-1317.8" font-family="Times,serif" font-size="14.00">fork()</text>
<polyline fill="none" stroke="black" points="295.04,-1310 480.04,-1310 "/>
<text text-anchor="middle" x="387.54" y="-1294.8" font-family="Times,serif" font-size="14.00">exit()</text>
<polyline fill="none" stroke="black" points="295.04,-1287 480.04,-1287 "/>
<text text-anchor="middle" x="387.54" y="-1271.8" font-family="Times,serif" font-size="14.00">bind()</text>
<polyline fill="none" stroke="black" points="295.04,-1264 480.04,-1264 "/>
<text text-anchor="middle" x="387.54" y="-1248.8" font-family="Times,serif" font-size="14.00">subsys_id</text>
<polyline fill="none" stroke="black" points="295.04,-1241 480.04,-1241 "/>
<text text-anchor="middle" x="387.54" y="-1225.8" font-family="Times,serif" font-size="14.00">disabled</text>
<polyline fill="none" stroke="black" points="295.04,-1218 480.04,-1218 "/>
<text text-anchor="middle" x="387.54" y="-1202.8" font-family="Times,serif" font-size="14.00">early_init</text>
<polyline fill="none" stroke="black" points="295.04,-1195 480.04,-1195 "/>
<text text-anchor="middle" x="387.54" y="-1179.8" font-family="Times,serif" font-size="14.00">broken_hierarchy</text>
<polyline fill="none" stroke="black" points="295.04,-1172 480.04,-1172 "/>
<text text-anchor="middle" x="387.54" y="-1156.8" font-family="Times,serif" font-size="14.00">warned_broken_hierarchy</text>
<polyline fill="none" stroke="black" points="295.04,-1149 480.04,-1149 "/>
<text text-anchor="middle" x="387.54" y="-1133.8" font-family="Times,serif" font-size="14.00">name</text>
<polyline fill="none" stroke="black" points="295.04,-1126 480.04,-1126 "/>
<text text-anchor="middle" x="387.54" y="-1110.8" font-family="Times,serif" font-size="14.00">cgroupfs_root *root</text>
<polyline fill="none" stroke="black" points="295.04,-1103 480.04,-1103 "/>
<text text-anchor="middle" x="387.54" y="-1087.8" font-family="Times,serif" font-size="14.00">list_head cftsets</text>
<polyline fill="none" stroke="black" points="295.04,-1080 480.04,-1080 "/>
<text text-anchor="middle" x="387.54" y="-1064.8" font-family="Times,serif" font-size="14.00">cftype *base_cftypes</text>
<polyline fill="none" stroke="black" points="295.04,-1057 480.04,-1057 "/>
<text text-anchor="middle" x="387.54" y="-1041.8" font-family="Times,serif" font-size="14.00">cftype_set base_cftset</text>
<polyline fill="none" stroke="black" points="295.04,-1034 480.04,-1034 "/>
<text text-anchor="middle" x="387.54" y="-1018.8" font-family="Times,serif" font-size="14.00">module *module</text>
</g>
<!-- cgroupfs_root -->
<g id="node3" class="node"><title>cgroupfs_root</title>
<polygon fill="none" stroke="black" points="42.5399,-708.5 42.5399,-961.5 308.54,-961.5 308.54,-708.5 42.5399,-708.5"/>
<text text-anchor="middle" x="175.54" y="-946.3" font-family="Times,serif" font-size="14.00">STRUCT CGROUPFS_ROOT</text>
<polyline fill="none" stroke="black" points="42.5399,-938.5 308.54,-938.5 "/>
<text text-anchor="middle" x="175.54" y="-923.3" font-family="Times,serif" font-size="14.00">struct super_block *sb</text>
<polyline fill="none" stroke="black" points="42.5399,-915.5 308.54,-915.5 "/>
<text text-anchor="middle" x="175.54" y="-900.3" font-family="Times,serif" font-size="14.00">subsys_mask</text>
<polyline fill="none" stroke="black" points="42.5399,-892.5 308.54,-892.5 "/>
<text text-anchor="middle" x="175.54" y="-877.3" font-family="Times,serif" font-size="14.00">hierarchy_id</text>
<polyline fill="none" stroke="black" points="42.5399,-869.5 308.54,-869.5 "/>
<text text-anchor="middle" x="175.54" y="-854.3" font-family="Times,serif" font-size="14.00">cgroup top_cgroup</text>
<polyline fill="none" stroke="black" points="42.5399,-846.5 308.54,-846.5 "/>
<text text-anchor="middle" x="175.54" y="-831.3" font-family="Times,serif" font-size="14.00">number_of_cgroups</text>
<polyline fill="none" stroke="black" points="42.5399,-823.5 308.54,-823.5 "/>
<text text-anchor="middle" x="175.54" y="-808.3" font-family="Times,serif" font-size="14.00">root_list</text>
<polyline fill="none" stroke="black" points="42.5399,-800.5 308.54,-800.5 "/>
<text text-anchor="middle" x="175.54" y="-785.3" font-family="Times,serif" font-size="14.00">flags</text>
<polyline fill="none" stroke="black" points="42.5399,-777.5 308.54,-777.5 "/>
<text text-anchor="middle" x="175.54" y="-762.3" font-family="Times,serif" font-size="14.00">cgroup_idr</text>
<polyline fill="none" stroke="black" points="42.5399,-754.5 308.54,-754.5 "/>
<text text-anchor="middle" x="175.54" y="-739.3" font-family="Times,serif" font-size="14.00">release_agent_path[PATH_MAX]</text>
<polyline fill="none" stroke="black" points="42.5399,-731.5 308.54,-731.5 "/>
<text text-anchor="middle" x="175.54" y="-716.3" font-family="Times,serif" font-size="14.00">name[MAX_CGROUP_ROOT_NAMELEN]</text>
</g>
<!-- cgroup_subsys&#45;&gt;cgroupfs_root -->
<g id="edge16" class="edge"><title>cgroup_subsys&#45;&gt;cgroupfs_root</title>
<path fill="none" stroke="black" d="M295.027,-1041.42C289.918,-1030.74 284.742,-1020.21 279.54,-1010 272.986,-997.133 265.861,-983.92 258.517,-970.804"/>
<polygon fill="black" stroke="black" points="261.367,-968.731 253.402,-961.744 255.271,-972.173 261.367,-968.731"/>
</g>
<!-- cftype -->
<g id="node5" class="node"><title>cftype</title>
<polygon fill="none" stroke="black" points="326.54,-697 326.54,-973 448.54,-973 448.54,-697 326.54,-697"/>
<text text-anchor="middle" x="387.54" y="-957.8" font-family="Times,serif" font-size="14.00">STRUCT CFTYPE</text>
<polyline fill="none" stroke="black" points="326.54,-950 448.54,-950 "/>
<text text-anchor="middle" x="387.54" y="-934.8" font-family="Times,serif" font-size="14.00">name</text>
<polyline fill="none" stroke="black" points="326.54,-927 448.54,-927 "/>
<text text-anchor="middle" x="387.54" y="-911.8" font-family="Times,serif" font-size="14.00">int private</text>
<polyline fill="none" stroke="black" points="326.54,-904 448.54,-904 "/>
<text text-anchor="middle" x="387.54" y="-888.8" font-family="Times,serif" font-size="14.00">umode_t mode</text>
<polyline fill="none" stroke="black" points="326.54,-881 448.54,-881 "/>
<text text-anchor="middle" x="387.54" y="-865.8" font-family="Times,serif" font-size="14.00">max_write_len</text>
<polyline fill="none" stroke="black" points="326.54,-858 448.54,-858 "/>
<text text-anchor="middle" x="387.54" y="-842.8" font-family="Times,serif" font-size="14.00">flags</text>
<polyline fill="none" stroke="black" points="326.54,-835 448.54,-835 "/>
<text text-anchor="middle" x="387.54" y="-819.8" font-family="Times,serif" font-size="14.00">cgroup_subsys *ss</text>
<polyline fill="none" stroke="black" points="326.54,-812 448.54,-812 "/>
<text text-anchor="middle" x="387.54" y="-796.8" font-family="Times,serif" font-size="14.00">read_u64()</text>
<polyline fill="none" stroke="black" points="326.54,-789 448.54,-789 "/>
<text text-anchor="middle" x="387.54" y="-773.8" font-family="Times,serif" font-size="14.00">seq_show()</text>
<polyline fill="none" stroke="black" points="326.54,-766 448.54,-766 "/>
<text text-anchor="middle" x="387.54" y="-750.8" font-family="Times,serif" font-size="14.00">write_u64()</text>
<polyline fill="none" stroke="black" points="326.54,-743 448.54,-743 "/>
<text text-anchor="middle" x="387.54" y="-727.8" font-family="Times,serif" font-size="14.00">write_string()</text>
<polyline fill="none" stroke="black" points="326.54,-720 448.54,-720 "/>
<text text-anchor="middle" x="387.54" y="-704.8" font-family="Times,serif" font-size="14.00">trigger()</text>
</g>
<!-- cgroup_subsys&#45;&gt;cftype -->
<g id="edge18" class="edge"><title>cgroup_subsys&#45;&gt;cftype</title>
<path fill="none" stroke="black" d="M380.889,-1010.91C380.937,-1001.59 381.003,-992.382 381.087,-983.344"/>
<polygon fill="black" stroke="black" points="384.588,-983.254 381.188,-973.219 377.588,-983.183 384.588,-983.254"/>
</g>
<!-- cgroup -->
<g id="node2" class="node"><title>cgroup</title>
<polygon fill="none" stroke="black" points="0.539861,-199 0.539861,-659 350.54,-659 350.54,-199 0.539861,-199"/>
<text text-anchor="middle" x="175.54" y="-643.8" font-family="Times,serif" font-size="14.00">STRUCT CGROUP</text>
<polyline fill="none" stroke="black" points="0.539861,-636 350.54,-636 "/>
<text text-anchor="middle" x="175.54" y="-620.8" font-family="Times,serif" font-size="14.00">flag</text>
<polyline fill="none" stroke="black" points="0.539861,-613 350.54,-613 "/>
<text text-anchor="middle" x="175.54" y="-597.8" font-family="Times,serif" font-size="14.00">id</text>
<polyline fill="none" stroke="black" points="0.539861,-590 350.54,-590 "/>
<text text-anchor="middle" x="175.54" y="-574.8" font-family="Times,serif" font-size="14.00">nr_css</text>
<polyline fill="none" stroke="black" points="0.539861,-567 350.54,-567 "/>
<text text-anchor="middle" x="175.54" y="-551.8" font-family="Times,serif" font-size="14.00">sibling</text>
<polyline fill="none" stroke="black" points="0.539861,-544 350.54,-544 "/>
<text text-anchor="middle" x="175.54" y="-528.8" font-family="Times,serif" font-size="14.00">children</text>
<polyline fill="none" stroke="black" points="0.539861,-521 350.54,-521 "/>
<text text-anchor="middle" x="175.54" y="-505.8" font-family="Times,serif" font-size="14.00">files</text>
<polyline fill="none" stroke="black" points="0.539861,-498 350.54,-498 "/>
<text text-anchor="middle" x="175.54" y="-482.8" font-family="Times,serif" font-size="14.00">cgroup *parent</text>
<polyline fill="none" stroke="black" points="0.539861,-475 350.54,-475 "/>
<text text-anchor="middle" x="175.54" y="-459.8" font-family="Times,serif" font-size="14.00">*dentry</text>
<polyline fill="none" stroke="black" points="0.539861,-452 350.54,-452 "/>
<text text-anchor="middle" x="175.54" y="-436.8" font-family="Times,serif" font-size="14.00">serail_nr</text>
<polyline fill="none" stroke="black" points="0.539861,-429 350.54,-429 "/>
<text text-anchor="middle" x="175.54" y="-413.8" font-family="Times,serif" font-size="14.00">cgroup_name *name</text>
<polyline fill="none" stroke="black" points="0.539861,-406 350.54,-406 "/>
<text text-anchor="middle" x="175.54" y="-390.8" font-family="Times,serif" font-size="14.00">cgroup_subsys_state *subsys[CGROUP_SUBSYS_COUNT]</text>
<polyline fill="none" stroke="black" points="0.539861,-383 350.54,-383 "/>
<text text-anchor="middle" x="175.54" y="-367.8" font-family="Times,serif" font-size="14.00">cgroupfs_root *root</text>
<polyline fill="none" stroke="black" points="0.539861,-360 350.54,-360 "/>
<text text-anchor="middle" x="175.54" y="-344.8" font-family="Times,serif" font-size="14.00">cset_links</text>
<polyline fill="none" stroke="black" points="0.539861,-337 350.54,-337 "/>
<text text-anchor="middle" x="175.54" y="-321.8" font-family="Times,serif" font-size="14.00">release_list</text>
<polyline fill="none" stroke="black" points="0.539861,-314 350.54,-314 "/>
<text text-anchor="middle" x="175.54" y="-298.8" font-family="Times,serif" font-size="14.00">pid_list</text>
<polyline fill="none" stroke="black" points="0.539861,-291 350.54,-291 "/>
<text text-anchor="middle" x="175.54" y="-275.8" font-family="Times,serif" font-size="14.00">pid_list_mutex</text>
<polyline fill="none" stroke="black" points="0.539861,-268 350.54,-268 "/>
<text text-anchor="middle" x="175.54" y="-252.8" font-family="Times,serif" font-size="14.00">cgroup_subsys_state dummy_css</text>
<polyline fill="none" stroke="black" points="0.539861,-245 350.54,-245 "/>
<text text-anchor="middle" x="175.54" y="-229.8" font-family="Times,serif" font-size="14.00">destroy_work</text>
<polyline fill="none" stroke="black" points="0.539861,-222 350.54,-222 "/>
<text text-anchor="middle" x="175.54" y="-206.8" font-family="Times,serif" font-size="14.00">xattr</text>
</g>
<!-- cgroup&#45;&gt;cgroupfs_root -->
<g id="edge22" class="edge"><title>cgroup&#45;&gt;cgroupfs_root</title>
<path fill="none" stroke="black" d="M182.236,-659.055C182.182,-672.359 182.089,-685.503 181.956,-698.252"/>
<polygon fill="black" stroke="black" points="178.455,-698.347 181.841,-708.386 185.455,-698.427 178.455,-698.347"/>
</g>
<!-- cgroup_subsys_state -->
<g id="node8" class="node"><title>cgroup_subsys_state</title>
<polygon fill="none" stroke="black" points="59.0399,-0.5 59.0399,-161.5 292.04,-161.5 292.04,-0.5 59.0399,-0.5"/>
<text text-anchor="middle" x="175.54" y="-146.3" font-family="Times,serif" font-size="14.00">STRUCT CGROUP_SUBSYS_STATE</text>
<polyline fill="none" stroke="black" points="59.0399,-138.5 292.04,-138.5 "/>
<text text-anchor="middle" x="175.54" y="-123.3" font-family="Times,serif" font-size="14.00">*cgroup</text>
<polyline fill="none" stroke="black" points="59.0399,-115.5 292.04,-115.5 "/>
<text text-anchor="middle" x="175.54" y="-100.3" font-family="Times,serif" font-size="14.00">cgroup_subsys *ss</text>
<polyline fill="none" stroke="black" points="59.0399,-92.5 292.04,-92.5 "/>
<text text-anchor="middle" x="175.54" y="-77.3" font-family="Times,serif" font-size="14.00">cgroup_subsys *parent</text>
<polyline fill="none" stroke="black" points="59.0399,-69.5 292.04,-69.5 "/>
<text text-anchor="middle" x="175.54" y="-54.3" font-family="Times,serif" font-size="14.00">percpu_ref refcnt</text>
<polyline fill="none" stroke="black" points="59.0399,-46.5 292.04,-46.5 "/>
<text text-anchor="middle" x="175.54" y="-31.3" font-family="Times,serif" font-size="14.00">flags</text>
<polyline fill="none" stroke="black" points="59.0399,-23.5 292.04,-23.5 "/>
<text text-anchor="middle" x="175.54" y="-8.3" font-family="Times,serif" font-size="14.00">destroy_work</text>
</g>
<!-- cgroup&#45;&gt;cgroup_subsys_state -->
<g id="edge24" class="edge"><title>cgroup&#45;&gt;cgroup_subsys_state</title>
<path fill="none" stroke="black" d="M169.119,-198.657C169.229,-189.486 169.368,-180.552 169.535,-171.975"/>
<polygon fill="black" stroke="black" points="173.04,-171.769 169.752,-161.698 166.041,-171.621 173.04,-171.769"/>
</g>
<!-- cgroupfs_root&#45;&gt;cgroup -->
<g id="edge4" class="edge"><title>cgroupfs_root&#45;&gt;cgroup</title>
<path fill="none" stroke="black" d="M169.239,-708.386C169.083,-695.743 168.968,-682.631 168.893,-669.294"/>
<polygon fill="black" stroke="black" points="172.392,-669.038 168.844,-659.055 165.392,-669.072 172.392,-669.038"/>
</g>
<!-- cgroup_name -->
<g id="node4" class="node"><title>cgroup_name</title>
<polygon fill="none" stroke="black" points="259.54,-1765 259.54,-1811 433.54,-1811 433.54,-1765 259.54,-1765"/>
<text text-anchor="middle" x="346.54" y="-1795.8" font-family="Times,serif" font-size="14.00">STRUCT CGROUP_NAME</text>
<polyline fill="none" stroke="black" points="259.54,-1788 433.54,-1788 "/>
<text text-anchor="middle" x="346.54" y="-1772.8" font-family="Times,serif" font-size="14.00">name</text>
</g>
<!-- cftype&#45;&gt;cgroup_subsys -->
<g id="edge26" class="edge"><title>cftype&#45;&gt;cgroup_subsys</title>
<path fill="none" stroke="black" d="M393.891,-973.219C393.989,-982.21 394.069,-991.408 394.131,-1000.74"/>
<polygon fill="black" stroke="black" points="390.632,-1000.93 394.191,-1010.91 397.632,-1000.89 390.632,-1000.93"/>
</g>
<!-- cgrp_cset_link -->
<g id="node6" class="node"><title>cgrp_cset_link</title>
<polygon fill="none" stroke="black" points="55.5399,-1730.5 55.5399,-1845.5 241.54,-1845.5 241.54,-1730.5 55.5399,-1730.5"/>
<text text-anchor="middle" x="148.54" y="-1830.3" font-family="Times,serif" font-size="14.00">STRUCT CGRP_CSET_LINK</text>
<polyline fill="none" stroke="black" points="55.5399,-1822.5 241.54,-1822.5 "/>
<text text-anchor="middle" x="148.54" y="-1807.3" font-family="Times,serif" font-size="14.00">cgroup *cgrp</text>
<polyline fill="none" stroke="black" points="55.5399,-1799.5 241.54,-1799.5 "/>
<text text-anchor="middle" x="148.54" y="-1784.3" font-family="Times,serif" font-size="14.00">css_set *cset</text>
<polyline fill="none" stroke="black" points="55.5399,-1776.5 241.54,-1776.5 "/>
<text text-anchor="middle" x="148.54" y="-1761.3" font-family="Times,serif" font-size="14.00">cset_link</text>
<polyline fill="none" stroke="black" points="55.5399,-1753.5 241.54,-1753.5 "/>
<text text-anchor="middle" x="148.54" y="-1738.3" font-family="Times,serif" font-size="14.00">cgrp_link</text>
</g>
<!-- cgrp_cset_link&#45;&gt;cgroup -->
<g id="edge12" class="edge"><title>cgrp_cset_link&#45;&gt;cgroup</title>
<path fill="none" stroke="black" d="M128.949,-1730.4C75.3729,-1567.27 -63.3102,-1083.08 33.5399,-696 35.8268,-686.86 38.494,-677.69 41.4767,-668.54"/>
<polygon fill="black" stroke="black" points="44.8101,-669.609 44.6966,-659.015 38.1787,-667.367 44.8101,-669.609"/>
</g>
<!-- css_set -->
<g id="node7" class="node"><title>css_set</title>
<polygon fill="none" stroke="black" points="146.04,-1555 146.04,-1693 421.04,-1693 421.04,-1555 146.04,-1555"/>
<text text-anchor="middle" x="283.54" y="-1677.8" font-family="Times,serif" font-size="14.00">STRUCT CSS_SET</text>
<polyline fill="none" stroke="black" points="146.04,-1670 421.04,-1670 "/>
<text text-anchor="middle" x="283.54" y="-1654.8" font-family="Times,serif" font-size="14.00">refcount</text>
<polyline fill="none" stroke="black" points="146.04,-1647 421.04,-1647 "/>
<text text-anchor="middle" x="283.54" y="-1631.8" font-family="Times,serif" font-size="14.00">hlist</text>
<polyline fill="none" stroke="black" points="146.04,-1624 421.04,-1624 "/>
<text text-anchor="middle" x="283.54" y="-1608.8" font-family="Times,serif" font-size="14.00">tasks</text>
<polyline fill="none" stroke="black" points="146.04,-1601 421.04,-1601 "/>
<text text-anchor="middle" x="283.54" y="-1585.8" font-family="Times,serif" font-size="14.00">cgrp_links</text>
<polyline fill="none" stroke="black" points="146.04,-1578 421.04,-1578 "/>
<text text-anchor="middle" x="283.54" y="-1562.8" font-family="Times,serif" font-size="14.00">cgroup_subsys [CGROUP_SUBSYS_COUNT]</text>
</g>
<!-- cgrp_cset_link&#45;&gt;css_set -->
<g id="edge14" class="edge"><title>cgrp_cset_link&#45;&gt;css_set</title>
<path fill="none" stroke="black" d="M195.756,-1730.34C203.676,-1720.84 212.006,-1710.84 220.252,-1700.95"/>
<polygon fill="black" stroke="black" points="223.125,-1702.97 226.838,-1693.04 217.747,-1698.48 223.125,-1702.97"/>
</g>
<!-- css_set&#45;&gt;cgroup_subsys -->
<g id="edge2" class="edge"><title>css_set&#45;&gt;cgroup_subsys</title>
<path fill="none" stroke="black" d="M303.346,-1554.82C305.888,-1546.07 308.599,-1536.74 311.432,-1526.99"/>
<polygon fill="black" stroke="black" points="314.876,-1527.68 314.304,-1517.1 308.154,-1525.73 314.876,-1527.68"/>
</g>
<!-- cgroup_subsys_state&#45;&gt;cgroup_subsys -->
<g id="edge6" class="edge"><title>cgroup_subsys_state&#45;&gt;cgroup_subsys</title>
<path fill="none" stroke="black" d="M292.153,-135.461C317.767,-152.161 342.343,-172.933 359.54,-198 487.153,-384.012 435.659,-471.486 457.54,-696 469.525,-818.973 472.186,-851.316 457.54,-974 456.495,-982.752 455.278,-991.623 453.917,-1000.56"/>
<polygon fill="black" stroke="black" points="450.423,-1000.24 452.32,-1010.67 457.337,-1001.34 450.423,-1000.24"/>
</g>
<!-- cgroup_subsys_state&#45;&gt;cgroup -->
<g id="edge8" class="edge"><title>cgroup_subsys_state&#45;&gt;cgroup</title>
<path fill="none" stroke="black" d="M181.328,-161.698C181.524,-170.237 181.689,-179.21 181.825,-188.483"/>
<polygon fill="black" stroke="black" points="178.328,-188.705 181.961,-198.657 185.327,-188.612 178.328,-188.705"/>
</g>
<!-- cgroup_subsys_state&#45;&gt;cgroup_subsys_state -->
<g id="edge10" class="edge"><title>cgroup_subsys_state&#45;&gt;cgroup_subsys_state</title>
<path fill="none" stroke="black" d="M292.242,-132.853C302.861,-122.073 309.54,-104.789 309.54,-81 309.54,-62.4148 305.463,-47.7998 298.616,-37.1551"/>
<polygon fill="black" stroke="black" points="301.208,-34.7913 292.242,-29.1473 295.731,-39.1509 301.208,-34.7913"/>
</g>
<!-- cgroup_sb_opts -->
<g id="node9" class="node"><title>cgroup_sb_opts</title>
<polygon fill="none" stroke="black" points="80.5399,-1172 80.5399,-1356 270.54,-1356 270.54,-1172 80.5399,-1172"/>
<text text-anchor="middle" x="175.54" y="-1340.8" font-family="Times,serif" font-size="14.00">STRUCT CGROUP_SB_OPTS</text>
<polyline fill="none" stroke="black" points="80.5399,-1333 270.54,-1333 "/>
<text text-anchor="middle" x="175.54" y="-1317.8" font-family="Times,serif" font-size="14.00">subsys_mask</text>
<polyline fill="none" stroke="black" points="80.5399,-1310 270.54,-1310 "/>
<text text-anchor="middle" x="175.54" y="-1294.8" font-family="Times,serif" font-size="14.00">flags</text>
<polyline fill="none" stroke="black" points="80.5399,-1287 270.54,-1287 "/>
<text text-anchor="middle" x="175.54" y="-1271.8" font-family="Times,serif" font-size="14.00">*release_agent</text>
<polyline fill="none" stroke="black" points="80.5399,-1264 270.54,-1264 "/>
<text text-anchor="middle" x="175.54" y="-1248.8" font-family="Times,serif" font-size="14.00">cpuset_clone_children</text>
<polyline fill="none" stroke="black" points="80.5399,-1241 270.54,-1241 "/>
<text text-anchor="middle" x="175.54" y="-1225.8" font-family="Times,serif" font-size="14.00">char *name</text>
<polyline fill="none" stroke="black" points="80.5399,-1218 270.54,-1218 "/>
<text text-anchor="middle" x="175.54" y="-1202.8" font-family="Times,serif" font-size="14.00">empty_subsystem flag</text>
<polyline fill="none" stroke="black" points="80.5399,-1195 270.54,-1195 "/>
<text text-anchor="middle" x="175.54" y="-1179.8" font-family="Times,serif" font-size="14.00">cgroupfs_root *new_root</text>
</g>
<!-- cgroup_sb_opts&#45;&gt;cgroupfs_root -->
<g id="edge20" class="edge"><title>cgroup_sb_opts&#45;&gt;cgroupfs_root</title>
<path fill="none" stroke="black" d="M175.54,-1171.92C175.54,-1113.8 175.54,-1037.39 175.54,-972.135"/>
<polygon fill="black" stroke="black" points="179.04,-971.762 175.54,-961.762 172.04,-971.762 179.04,-971.762"/>
</g>
</g>
</svg>
