<?xml version="1.0" encoding="UTF-8" standalone="no"?>
<!DOCTYPE svg PUBLIC "-//W3C//DTD SVG 1.1//EN"
 "http://www.w3.org/Graphics/SVG/1.1/DTD/svg11.dtd">
<!-- Generated by graphviz version 2.28.0 (20120228.1928)
 -->
<!-- Title: G Pages: 1 -->
<svg width="3539pt" height="836pt"
 viewBox="0.00 0.00 3539.00 836.00" xmlns="http://www.w3.org/2000/svg" xmlns:xlink="http://www.w3.org/1999/xlink">
<g id="graph1" class="graph" transform="scale(1 1) rotate(0) translate(4 832)">
<title>G</title>
<polygon fill="white" stroke="white" points="-4,5 -4,-832 3536,-832 3536,5 -4,5"/>
<!-- submit_bio -->
<g id="node1" class="node"><title>submit_bio</title>
<ellipse fill="none" stroke="black" cx="1236" cy="-810" rx="50.5427" ry="18"/>
<text text-anchor="middle" x="1236" y="-806.3" font-family="Times,serif" font-size="14.00">submit_bio</text>
</g>
<!-- bdev_logical_block_size -->
<g id="node3" class="node"><title>bdev_logical_block_size</title>
<ellipse fill="none" stroke="black" cx="1069" cy="-722" rx="98.212" ry="18"/>
<text text-anchor="middle" x="1069" y="-718.3" font-family="Times,serif" font-size="14.00">bdev_logical_block_size</text>
</g>
<!-- submit_bio&#45;&gt;bdev_logical_block_size -->
<g id="edge2" class="edge"><title>submit_bio&#45;&gt;bdev_logical_block_size</title>
<path fill="none" stroke="black" d="M1199.34,-797.52C1181.85,-791.465 1160.89,-783.351 1143,-774 1127.57,-765.936 1111.54,-755.215 1098.36,-745.684"/>
<polygon fill="black" stroke="black" points="1100.27,-742.744 1090.14,-739.632 1096.12,-748.381 1100.27,-742.744"/>
<text text-anchor="middle" x="1187.5" y="-762.3" font-family="Times,serif" font-size="14.00">WRITE_SAME</text>
</g>
<!-- bio_sectors -->
<g id="node5" class="node"><title>bio_sectors</title>
<ellipse fill="none" stroke="black" cx="1236" cy="-722" rx="50.5427" ry="18"/>
<text text-anchor="middle" x="1236" y="-718.3" font-family="Times,serif" font-size="14.00">bio_sectors</text>
</g>
<!-- submit_bio&#45;&gt;bio_sectors -->
<g id="edge4" class="edge"><title>submit_bio&#45;&gt;bio_sectors</title>
<path fill="none" stroke="black" d="M1236,-791.597C1236,-779.746 1236,-763.817 1236,-750.292"/>
<polygon fill="black" stroke="black" points="1239.5,-750.084 1236,-740.084 1232.5,-750.084 1239.5,-750.084"/>
<text text-anchor="middle" x="1278.5" y="-762.3" font-family="Times,serif" font-size="14.00">READ/WRITE</text>
</g>
<!-- generic_make_request -->
<g id="node7" class="node"><title>generic_make_request</title>
<ellipse fill="none" stroke="black" cx="1395" cy="-722" rx="90.0136" ry="18"/>
<text text-anchor="middle" x="1395" y="-718.3" font-family="Times,serif" font-size="14.00">generic_make_request</text>
</g>
<!-- submit_bio&#45;&gt;generic_make_request -->
<g id="edge6" class="edge"><title>submit_bio&#45;&gt;generic_make_request</title>
<path fill="none" stroke="black" d="M1272.02,-797.207C1288.6,-791.187 1308.26,-783.19 1325,-774 1339.56,-766.003 1354.6,-755.407 1366.98,-745.947"/>
<polygon fill="black" stroke="black" points="1369.36,-748.532 1375.09,-739.624 1365.05,-743.011 1369.36,-748.532"/>
</g>
<!-- generic_make_request_checks -->
<g id="node9" class="node"><title>generic_make_request_checks</title>
<ellipse fill="none" stroke="black" cx="772" cy="-634" rx="117.935" ry="18"/>
<text text-anchor="middle" x="772" y="-630.3" font-family="Times,serif" font-size="14.00">generic_make_request_checks</text>
</g>
<!-- generic_make_request&#45;&gt;generic_make_request_checks -->
<g id="edge8" class="edge"><title>generic_make_request&#45;&gt;generic_make_request_checks</title>
<path fill="none" stroke="black" d="M1329.7,-709.539C1318.15,-707.615 1306.23,-705.695 1295,-704 1147.83,-681.791 976.757,-659.973 871.43,-647"/>
<polygon fill="black" stroke="black" points="871.797,-643.519 861.445,-645.773 870.943,-650.467 871.797,-643.519"/>
</g>
<!-- bio_list_add -->
<g id="node11" class="node"><title>bio_list_add</title>
<ellipse fill="none" stroke="black" cx="1351" cy="-634" rx="53.4184" ry="18"/>
<text text-anchor="middle" x="1351" y="-630.3" font-family="Times,serif" font-size="14.00">bio_list_add</text>
</g>
<!-- generic_make_request&#45;&gt;bio_list_add -->
<g id="edge10" class="edge"><title>generic_make_request&#45;&gt;bio_list_add</title>
<path fill="none" stroke="black" d="M1386.31,-704.009C1380.04,-691.759 1371.46,-674.998 1364.33,-661.062"/>
<polygon fill="black" stroke="black" points="1367.35,-659.264 1359.67,-651.956 1361.11,-662.452 1367.35,-659.264"/>
</g>
<!-- make_request_fn -->
<g id="node13" class="node"><title>make_request_fn</title>
<ellipse fill="none" stroke="black" cx="1494" cy="-634" rx="71.2405" ry="18"/>
<text text-anchor="middle" x="1494" y="-630.3" font-family="Times,serif" font-size="14.00">make_request_fn</text>
</g>
<!-- generic_make_request&#45;&gt;make_request_fn -->
<g id="edge12" class="edge"><title>generic_make_request&#45;&gt;make_request_fn</title>
<path fill="none" stroke="black" d="M1414.56,-704.009C1429.67,-690.884 1450.74,-672.581 1467.38,-658.122"/>
<polygon fill="black" stroke="black" points="1469.9,-660.572 1475.15,-651.372 1465.31,-655.288 1469.9,-660.572"/>
<text text-anchor="middle" x="1482" y="-674.3" font-family="Times,serif" font-size="14.00">q callback</text>
</g>
<!-- bio_list_pop -->
<g id="node15" class="node"><title>bio_list_pop</title>
<ellipse fill="none" stroke="black" cx="1656" cy="-634" rx="54.3924" ry="18"/>
<text text-anchor="middle" x="1656" y="-630.3" font-family="Times,serif" font-size="14.00">bio_list_pop</text>
</g>
<!-- generic_make_request&#45;&gt;bio_list_pop -->
<g id="edge14" class="edge"><title>generic_make_request&#45;&gt;bio_list_pop</title>
<path fill="none" stroke="black" d="M1444.99,-707.004C1466.34,-700.844 1491.48,-693.349 1514,-686 1547.08,-675.205 1584.06,-661.881 1611.99,-651.559"/>
<polygon fill="black" stroke="black" points="1613.31,-654.802 1621.47,-648.043 1610.88,-648.239 1613.31,-654.802"/>
</g>
<!-- bio_check_eod -->
<g id="node17" class="node"><title>bio_check_eod</title>
<ellipse fill="none" stroke="black" cx="126" cy="-546" rx="63.5411" ry="18"/>
<text text-anchor="middle" x="126" y="-542.3" font-family="Times,serif" font-size="14.00">bio_check_eod</text>
</g>
<!-- generic_make_request_checks&#45;&gt;bio_check_eod -->
<g id="edge16" class="edge"><title>generic_make_request_checks&#45;&gt;bio_check_eod</title>
<path fill="none" stroke="black" d="M686.216,-621.58C555.654,-604.199 309.844,-571.475 192.119,-555.802"/>
<polygon fill="black" stroke="black" points="192.532,-552.326 182.158,-554.476 191.608,-559.265 192.532,-552.326"/>
</g>
<!-- bdev_get_queue -->
<g id="node19" class="node"><title>bdev_get_queue</title>
<ellipse fill="none" stroke="black" cx="375" cy="-546" rx="68.3664" ry="18"/>
<text text-anchor="middle" x="375" y="-542.3" font-family="Times,serif" font-size="14.00">bdev_get_queue</text>
</g>
<!-- generic_make_request_checks&#45;&gt;bdev_get_queue -->
<g id="edge18" class="edge"><title>generic_make_request_checks&#45;&gt;bdev_get_queue</title>
<path fill="none" stroke="black" d="M706.403,-618.954C641.705,-605.078 540.009,-583.204 452,-564 446.65,-562.833 441.092,-561.615 435.521,-560.391"/>
<polygon fill="black" stroke="black" points="436.042,-556.922 425.523,-558.192 434.538,-563.759 436.042,-556.922"/>
</g>
<!-- should_fail_request -->
<g id="node21" class="node"><title>should_fail_request</title>
<ellipse fill="none" stroke="black" cx="541" cy="-546" rx="79.4147" ry="18"/>
<text text-anchor="middle" x="541" y="-542.3" font-family="Times,serif" font-size="14.00">should_fail_request</text>
</g>
<!-- generic_make_request_checks&#45;&gt;should_fail_request -->
<g id="edge20" class="edge"><title>generic_make_request_checks&#45;&gt;should_fail_request</title>
<path fill="none" stroke="black" d="M729.362,-617.126C690.018,-602.478 631.608,-580.733 590.28,-565.347"/>
<polygon fill="black" stroke="black" points="591.282,-561.985 580.689,-561.776 588.839,-568.545 591.282,-561.985"/>
</g>
<!-- blk_partition_remap -->
<g id="node23" class="node"><title>blk_partition_remap</title>
<ellipse fill="none" stroke="black" cx="722" cy="-546" rx="83.2892" ry="18"/>
<text text-anchor="middle" x="722" y="-542.3" font-family="Times,serif" font-size="14.00">blk_partition_remap</text>
</g>
<!-- generic_make_request_checks&#45;&gt;blk_partition_remap -->
<g id="edge22" class="edge"><title>generic_make_request_checks&#45;&gt;blk_partition_remap</title>
<path fill="none" stroke="black" d="M762.122,-616.009C754.931,-603.641 745.067,-586.675 736.919,-572.661"/>
<polygon fill="black" stroke="black" points="739.91,-570.841 731.858,-563.956 733.858,-574.36 739.91,-570.841"/>
</g>
<!-- create_io_context -->
<g id="node25" class="node"><title>create_io_context</title>
<ellipse fill="none" stroke="black" cx="897" cy="-546" rx="73.1654" ry="18"/>
<text text-anchor="middle" x="897" y="-542.3" font-family="Times,serif" font-size="14.00">create_io_context</text>
</g>
<!-- generic_make_request_checks&#45;&gt;create_io_context -->
<g id="edge24" class="edge"><title>generic_make_request_checks&#45;&gt;create_io_context</title>
<path fill="none" stroke="black" d="M796.398,-616.214C816.006,-602.724 843.705,-583.667 865.075,-568.964"/>
<polygon fill="black" stroke="black" points="867.256,-571.713 873.51,-563.161 863.288,-565.946 867.256,-571.713"/>
</g>
<!-- blk_throtl_bio -->
<g id="node28" class="node"><title>blk_throtl_bio</title>
<ellipse fill="none" stroke="black" cx="1050" cy="-546" rx="61.1419" ry="18"/>
<text text-anchor="middle" x="1050" y="-542.3" font-family="Times,serif" font-size="14.00">blk_throtl_bio</text>
</g>
<!-- generic_make_request_checks&#45;&gt;blk_throtl_bio -->
<g id="edge27" class="edge"><title>generic_make_request_checks&#45;&gt;blk_throtl_bio</title>
<path fill="none" stroke="black" d="M821.701,-617.625C871.922,-602.089 949.112,-578.21 999.586,-562.596"/>
<polygon fill="black" stroke="black" points="1000.79,-565.887 1009.31,-559.588 998.721,-559.2 1000.79,-565.887"/>
</g>
<!-- bio_endio -->
<g id="node30" class="node"><title>bio_endio</title>
<ellipse fill="none" stroke="black" cx="1849" cy="-458" rx="46.2191" ry="18"/>
<text text-anchor="middle" x="1849" y="-454.3" font-family="Times,serif" font-size="14.00">bio_endio</text>
</g>
<!-- generic_make_request_checks&#45;&gt;bio_endio -->
<g id="edge29" class="edge"><title>generic_make_request_checks&#45;&gt;bio_endio</title>
<path fill="none" stroke="black" d="M866.58,-623.189C1048,-603.334 1456.8,-553.569 1794,-476 1797.67,-475.155 1801.46,-474.19 1805.24,-473.158"/>
<polygon fill="black" stroke="black" points="1806.53,-476.43 1815.18,-470.31 1804.6,-469.701 1806.53,-476.43"/>
</g>
<!-- make_request_fn&#45;&gt;make_request_fn -->
<g id="edge57" class="edge"><title>make_request_fn&#45;&gt;make_request_fn</title>
<path fill="none" stroke="black" d="M1558,-642.049C1572.44,-641.323 1583,-638.641 1583,-634 1583,-630.52 1577.06,-628.14 1568,-626.862"/>
<polygon fill="black" stroke="black" points="1568.28,-623.373 1558,-625.951 1567.64,-630.345 1568.28,-623.373"/>
</g>
<!-- blk_queue_bio -->
<g id="node57" class="node"><title>blk_queue_bio</title>
<ellipse fill="none" stroke="black" cx="2252" cy="-546" rx="63.0666" ry="18"/>
<text text-anchor="middle" x="2252" y="-542.3" font-family="Times,serif" font-size="14.00">blk_queue_bio</text>
</g>
<!-- make_request_fn&#45;&gt;blk_queue_bio -->
<g id="edge55" class="edge"><title>make_request_fn&#45;&gt;blk_queue_bio</title>
<path fill="none" stroke="black" d="M1549.61,-622.659C1563.43,-620.281 1578.23,-617.896 1592,-616 1669.9,-605.274 1689.79,-606.12 1768,-598 1916.24,-582.61 2089.97,-564.216 2183.7,-554.264"/>
<polygon fill="black" stroke="black" points="2184.32,-557.717 2193.89,-553.181 2183.58,-550.757 2184.32,-557.717"/>
</g>
<!-- handle_bad_sector -->
<g id="node32" class="node"><title>handle_bad_sector</title>
<ellipse fill="none" stroke="black" cx="76" cy="-458" rx="76.5394" ry="18"/>
<text text-anchor="middle" x="76" y="-454.3" font-family="Times,serif" font-size="14.00">handle_bad_sector</text>
</g>
<!-- bio_check_eod&#45;&gt;handle_bad_sector -->
<g id="edge31" class="edge"><title>bio_check_eod&#45;&gt;handle_bad_sector</title>
<path fill="none" stroke="black" d="M116.122,-528.009C108.931,-515.641 99.067,-498.675 90.9191,-484.661"/>
<polygon fill="black" stroke="black" points="93.9099,-482.841 85.8579,-475.956 87.8583,-486.36 93.9099,-482.841"/>
</g>
<!-- create_task_io_context -->
<g id="node26" class="node"><title>create_task_io_context</title>
<ellipse fill="none" stroke="black" cx="262" cy="-458" rx="91.4625" ry="18"/>
<text text-anchor="middle" x="262" y="-454.3" font-family="Times,serif" font-size="14.00">create_task_io_context</text>
</g>
<!-- create_io_context&#45;&gt;create_task_io_context -->
<g id="edge25" class="edge"><title>create_io_context&#45;&gt;create_task_io_context</title>
<path fill="none" stroke="black" d="M844.926,-533.307C834.712,-531.305 824.05,-529.417 814,-528 712.469,-513.686 685.853,-521.804 584,-510 485.283,-498.56 461.113,-491.803 363,-476 355.075,-474.723 346.804,-473.368 338.556,-472.002"/>
<polygon fill="black" stroke="black" points="338.969,-468.523 328.531,-470.335 337.821,-475.428 338.969,-468.523"/>
</g>
<!-- bio_blkcg -->
<g id="node34" class="node"><title>bio_blkcg</title>
<ellipse fill="none" stroke="black" cx="418" cy="-458" rx="46.2191" ry="18"/>
<text text-anchor="middle" x="418" y="-454.3" font-family="Times,serif" font-size="14.00">bio_blkcg</text>
</g>
<!-- blk_throtl_bio&#45;&gt;bio_blkcg -->
<g id="edge33" class="edge"><title>blk_throtl_bio&#45;&gt;bio_blkcg</title>
<path fill="none" stroke="black" d="M1005.88,-533.426C997.026,-531.388 987.752,-529.457 979,-528 895.766,-514.142 873.951,-518.499 790,-510 649.024,-495.727 611.778,-504.611 473,-476 469.146,-475.205 465.176,-474.253 461.218,-473.21"/>
<polygon fill="black" stroke="black" points="462.047,-469.808 451.473,-470.47 460.152,-476.547 462.047,-469.808"/>
</g>
<!-- throtl_lookup_create_tg -->
<g id="node36" class="node"><title>throtl_lookup_create_tg</title>
<ellipse fill="none" stroke="black" cx="577" cy="-458" rx="94.338" ry="18"/>
<text text-anchor="middle" x="577" y="-454.3" font-family="Times,serif" font-size="14.00">throtl_lookup_create_tg</text>
</g>
<!-- blk_throtl_bio&#45;&gt;throtl_lookup_create_tg -->
<g id="edge35" class="edge"><title>blk_throtl_bio&#45;&gt;throtl_lookup_create_tg</title>
<path fill="none" stroke="black" d="M1005.03,-533.766C996.41,-531.745 987.443,-529.733 979,-528 963.24,-524.764 767.202,-491.339 654.832,-472.225"/>
<polygon fill="black" stroke="black" points="655.339,-468.761 644.893,-470.535 654.165,-475.662 655.339,-468.761"/>
</g>
<!-- throtl_charge_bio -->
<g id="node38" class="node"><title>throtl_charge_bio</title>
<ellipse fill="none" stroke="black" cx="763" cy="-458" rx="73.1654" ry="18"/>
<text text-anchor="middle" x="763" y="-454.3" font-family="Times,serif" font-size="14.00">throtl_charge_bio</text>
</g>
<!-- blk_throtl_bio&#45;&gt;throtl_charge_bio -->
<g id="edge37" class="edge"><title>blk_throtl_bio&#45;&gt;throtl_charge_bio</title>
<path fill="none" stroke="black" d="M1008.88,-532.678C958.581,-517.606 873.266,-492.042 817.53,-475.34"/>
<polygon fill="black" stroke="black" points="818.408,-471.949 807.824,-472.432 816.399,-478.655 818.408,-471.949"/>
</g>
<!-- throtl_trim_slice -->
<g id="node40" class="node"><title>throtl_trim_slice</title>
<ellipse fill="none" stroke="black" cx="924" cy="-458" rx="69.3156" ry="18"/>
<text text-anchor="middle" x="924" y="-454.3" font-family="Times,serif" font-size="14.00">throtl_trim_slice</text>
</g>
<!-- blk_throtl_bio&#45;&gt;throtl_trim_slice -->
<g id="edge39" class="edge"><title>blk_throtl_bio&#45;&gt;throtl_trim_slice</title>
<path fill="none" stroke="black" d="M1026.89,-529.226C1006.94,-515.613 977.939,-495.815 955.805,-480.708"/>
<polygon fill="black" stroke="black" points="957.623,-477.712 947.391,-474.965 953.677,-483.493 957.623,-477.712"/>
</g>
<!-- bio_associate_current -->
<g id="node42" class="node"><title>bio_associate_current</title>
<ellipse fill="none" stroke="black" cx="1099" cy="-458" rx="87.1385" ry="18"/>
<text text-anchor="middle" x="1099" y="-454.3" font-family="Times,serif" font-size="14.00">bio_associate_current</text>
</g>
<!-- blk_throtl_bio&#45;&gt;bio_associate_current -->
<g id="edge41" class="edge"><title>blk_throtl_bio&#45;&gt;bio_associate_current</title>
<path fill="none" stroke="black" d="M1059.68,-528.009C1066.73,-515.641 1076.39,-498.675 1084.38,-484.661"/>
<polygon fill="black" stroke="black" points="1087.43,-486.377 1089.34,-475.956 1081.35,-482.911 1087.43,-486.377"/>
</g>
<!-- throtl_add_bio_tg -->
<g id="node44" class="node"><title>throtl_add_bio_tg</title>
<ellipse fill="none" stroke="black" cx="1278" cy="-458" rx="73.1654" ry="18"/>
<text text-anchor="middle" x="1278" y="-454.3" font-family="Times,serif" font-size="14.00">throtl_add_bio_tg</text>
</g>
<!-- blk_throtl_bio&#45;&gt;throtl_add_bio_tg -->
<g id="edge43" class="edge"><title>blk_throtl_bio&#45;&gt;throtl_add_bio_tg</title>
<path fill="none" stroke="black" d="M1086.13,-531.373C1125.12,-516.666 1187.39,-493.178 1230.36,-476.97"/>
<polygon fill="black" stroke="black" points="1231.64,-480.228 1239.76,-473.424 1229.17,-473.678 1231.64,-480.228"/>
</g>
<!-- tg_update_disptime -->
<g id="node46" class="node"><title>tg_update_disptime</title>
<ellipse fill="none" stroke="black" cx="1450" cy="-458" rx="80.389" ry="18"/>
<text text-anchor="middle" x="1450" y="-454.3" font-family="Times,serif" font-size="14.00">tg_update_disptime</text>
</g>
<!-- blk_throtl_bio&#45;&gt;tg_update_disptime -->
<g id="edge45" class="edge"><title>blk_throtl_bio&#45;&gt;tg_update_disptime</title>
<path fill="none" stroke="black" d="M1097.85,-534.712C1169.14,-519.384 1303.47,-490.504 1384.04,-473.182"/>
<polygon fill="black" stroke="black" points="1385.03,-476.549 1394.07,-471.025 1383.56,-469.705 1385.03,-476.549"/>
</g>
<!-- throtl_schedule_next_dispatch -->
<g id="node48" class="node"><title>throtl_schedule_next_dispatch</title>
<ellipse fill="none" stroke="black" cx="1667" cy="-458" rx="117.935" ry="18"/>
<text text-anchor="middle" x="1667" y="-454.3" font-family="Times,serif" font-size="14.00">throtl_schedule_next_dispatch</text>
</g>
<!-- blk_throtl_bio&#45;&gt;throtl_schedule_next_dispatch -->
<g id="edge47" class="edge"><title>blk_throtl_bio&#45;&gt;throtl_schedule_next_dispatch</title>
<path fill="none" stroke="black" d="M1103.94,-537.481C1208.97,-522.842 1442.05,-490.355 1573.01,-472.101"/>
<polygon fill="black" stroke="black" points="1573.61,-475.551 1583.03,-470.704 1572.64,-468.618 1573.61,-475.551"/>
</g>
<!-- blk_init_queue -->
<g id="node49" class="node"><title>blk_init_queue</title>
<ellipse fill="none" stroke="black" cx="3228" cy="-810" rx="63.5411" ry="18"/>
<text text-anchor="middle" x="3228" y="-806.3" font-family="Times,serif" font-size="14.00">blk_init_queue</text>
</g>
<!-- blk_init_queue_node -->
<g id="node51" class="node"><title>blk_init_queue_node</title>
<ellipse fill="none" stroke="black" cx="3228" cy="-722" rx="85.2138" ry="18"/>
<text text-anchor="middle" x="3228" y="-718.3" font-family="Times,serif" font-size="14.00">blk_init_queue_node</text>
</g>
<!-- blk_init_queue&#45;&gt;blk_init_queue_node -->
<g id="edge49" class="edge"><title>blk_init_queue&#45;&gt;blk_init_queue_node</title>
<path fill="none" stroke="black" d="M3228,-791.597C3228,-779.746 3228,-763.817 3228,-750.292"/>
<polygon fill="black" stroke="black" points="3231.5,-750.084 3228,-740.084 3224.5,-750.084 3231.5,-750.084"/>
</g>
<!-- blk_init_allocated_queue -->
<g id="node53" class="node"><title>blk_init_allocated_queue</title>
<ellipse fill="none" stroke="black" cx="3228" cy="-634" rx="99.1619" ry="18"/>
<text text-anchor="middle" x="3228" y="-630.3" font-family="Times,serif" font-size="14.00">blk_init_allocated_queue</text>
</g>
<!-- blk_init_queue_node&#45;&gt;blk_init_allocated_queue -->
<g id="edge51" class="edge"><title>blk_init_queue_node&#45;&gt;blk_init_allocated_queue</title>
<path fill="none" stroke="black" d="M3228,-703.597C3228,-691.746 3228,-675.817 3228,-662.292"/>
<polygon fill="black" stroke="black" points="3231.5,-662.084 3228,-652.084 3224.5,-662.084 3231.5,-662.084"/>
<text text-anchor="middle" x="3245.5" y="-674.3" font-family="Times,serif" font-size="14.00">set rfn</text>
</g>
<!-- blk_queue_make_request -->
<g id="node55" class="node"><title>blk_queue_make_request</title>
<ellipse fill="none" stroke="black" cx="3135" cy="-546" rx="100.611" ry="18"/>
<text text-anchor="middle" x="3135" y="-542.3" font-family="Times,serif" font-size="14.00">blk_queue_make_request</text>
</g>
<!-- blk_init_allocated_queue&#45;&gt;blk_queue_make_request -->
<g id="edge53" class="edge"><title>blk_init_allocated_queue&#45;&gt;blk_queue_make_request</title>
<path fill="none" stroke="black" d="M3164.25,-620.126C3153.17,-615.031 3142.98,-607.921 3136,-598 3131.2,-591.177 3129.79,-582.469 3129.94,-574.186"/>
<polygon fill="black" stroke="black" points="3133.44,-574.361 3130.81,-564.097 3126.46,-573.759 3133.44,-574.361"/>
<text text-anchor="middle" x="3222" y="-586.3" font-family="Times,serif" font-size="14.00">set mfn default=blk_queue_bio</text>
</g>
<!-- elevator_init -->
<g id="node64" class="node"><title>elevator_init</title>
<ellipse fill="none" stroke="black" cx="3322" cy="-546" rx="55.3682" ry="18"/>
<text text-anchor="middle" x="3322" y="-542.3" font-family="Times,serif" font-size="14.00">elevator_init</text>
</g>
<!-- blk_init_allocated_queue&#45;&gt;elevator_init -->
<g id="edge63" class="edge"><title>blk_init_allocated_queue&#45;&gt;elevator_init</title>
<path fill="none" stroke="black" d="M3279.44,-618.543C3290.08,-613.512 3300.36,-606.828 3308,-598 3313.72,-591.385 3317.12,-582.63 3319.14,-574.245"/>
<polygon fill="black" stroke="black" points="3322.59,-574.839 3320.98,-564.368 3315.71,-573.561 3322.59,-574.839"/>
</g>
<!-- blk_set_default_limits -->
<g id="node60" class="node"><title>blk_set_default_limits</title>
<ellipse fill="none" stroke="black" cx="2932" cy="-458" rx="89.5377" ry="18"/>
<text text-anchor="middle" x="2932" y="-454.3" font-family="Times,serif" font-size="14.00">blk_set_default_limits</text>
</g>
<!-- blk_queue_make_request&#45;&gt;blk_set_default_limits -->
<g id="edge59" class="edge"><title>blk_queue_make_request&#45;&gt;blk_set_default_limits</title>
<path fill="none" stroke="black" d="M3097.77,-529.226C3064.04,-514.937 3014.23,-493.835 2978.02,-478.494"/>
<polygon fill="black" stroke="black" points="2979.23,-475.207 2968.66,-474.529 2976.5,-481.652 2979.23,-475.207"/>
</g>
<!-- blk_queue_bounce_limit -->
<g id="node62" class="node"><title>blk_queue_bounce_limit</title>
<ellipse fill="none" stroke="black" cx="3138" cy="-458" rx="98.1881" ry="18"/>
<text text-anchor="middle" x="3138" y="-454.3" font-family="Times,serif" font-size="14.00">blk_queue_bounce_limit</text>
</g>
<!-- blk_queue_make_request&#45;&gt;blk_queue_bounce_limit -->
<g id="edge61" class="edge"><title>blk_queue_make_request&#45;&gt;blk_queue_bounce_limit</title>
<path fill="none" stroke="black" d="M3135.61,-527.597C3136.02,-515.746 3136.58,-499.817 3137.05,-486.292"/>
<polygon fill="black" stroke="black" points="3140.55,-486.2 3137.4,-476.084 3133.56,-485.956 3140.55,-486.2"/>
<text text-anchor="middle" x="3172.5" y="-498.3" font-family="Times,serif" font-size="14.00">set dmamask</text>
</g>
<!-- blk_queue_bio&#45;&gt;bio_endio -->
<g id="edge76" class="edge"><title>blk_queue_bio&#45;&gt;bio_endio</title>
<path fill="none" stroke="black" d="M2189.93,-542.431C2089.87,-537.816 1901.46,-526.987 1876,-510 1867.34,-504.223 1861.26,-494.733 1857.1,-485.497"/>
<polygon fill="black" stroke="black" points="1860.33,-484.16 1853.42,-476.13 1853.82,-486.717 1860.33,-484.16"/>
<text text-anchor="middle" x="1904.5" y="-498.3" font-family="Times,serif" font-size="14.00">no request</text>
</g>
<!-- attempt_plug_merge -->
<g id="node70" class="node"><title>attempt_plug_merge</title>
<ellipse fill="none" stroke="black" cx="1998" cy="-458" rx="84.2388" ry="18"/>
<text text-anchor="middle" x="1998" y="-454.3" font-family="Times,serif" font-size="14.00">attempt_plug_merge</text>
</g>
<!-- blk_queue_bio&#45;&gt;attempt_plug_merge -->
<g id="edge69" class="edge"><title>blk_queue_bio&#45;&gt;attempt_plug_merge</title>
<path fill="none" stroke="black" d="M2189.99,-542.38C2104.02,-538.1 1957.27,-528.205 1941,-510 1931.4,-499.259 1940.17,-488.463 1953.47,-479.588"/>
<polygon fill="black" stroke="black" points="1955.45,-482.483 1962.21,-474.327 1951.84,-476.485 1955.45,-482.483"/>
<text text-anchor="middle" x="2046.5" y="-498.3" font-family="Times,serif" font-size="14.00">BACK_MERGE or FRONT_MERGE</text>
</g>
<!-- elv_merge -->
<g id="node73" class="node"><title>elv_merge</title>
<ellipse fill="none" stroke="black" cx="2163" cy="-458" rx="48.1437" ry="18"/>
<text text-anchor="middle" x="2163" y="-454.3" font-family="Times,serif" font-size="14.00">elv_merge</text>
</g>
<!-- blk_queue_bio&#45;&gt;elv_merge -->
<g id="edge72" class="edge"><title>blk_queue_bio&#45;&gt;elv_merge</title>
<path fill="none" stroke="black" d="M2198.58,-536.415C2183.63,-531.281 2169.02,-523.084 2160,-510 2155.26,-503.12 2154.41,-494.396 2155.24,-486.118"/>
<polygon fill="black" stroke="black" points="2158.72,-486.497 2157.01,-476.042 2151.83,-485.284 2158.72,-486.497"/>
<text text-anchor="middle" x="2237" y="-498.3" font-family="Times,serif" font-size="14.00">attempt back or front merge</text>
</g>
<!-- get_request -->
<g id="node75" class="node"><title>get_request</title>
<ellipse fill="none" stroke="black" cx="2287" cy="-458" rx="51.0191" ry="18"/>
<text text-anchor="middle" x="2287" y="-454.3" font-family="Times,serif" font-size="14.00">get_request</text>
</g>
<!-- blk_queue_bio&#45;&gt;get_request -->
<g id="edge74" class="edge"><title>blk_queue_bio&#45;&gt;get_request</title>
<path fill="none" stroke="black" d="M2292.71,-532.021C2302.7,-526.808 2312.18,-519.669 2318,-510 2323.34,-501.119 2319.78,-491.391 2313.45,-482.835"/>
<polygon fill="black" stroke="black" points="2315.92,-480.34 2306.74,-475.056 2310.62,-484.913 2315.92,-480.34"/>
<text text-anchor="middle" x="2365.5" y="-498.3" font-family="Times,serif" font-size="14.00">fail means endio</text>
</g>
<!-- init_request_from_bio -->
<g id="node78" class="node"><title>init_request_from_bio</title>
<ellipse fill="none" stroke="black" cx="2446" cy="-458" rx="89.5377" ry="18"/>
<text text-anchor="middle" x="2446" y="-454.3" font-family="Times,serif" font-size="14.00">init_request_from_bio</text>
</g>
<!-- blk_queue_bio&#45;&gt;init_request_from_bio -->
<g id="edge78" class="edge"><title>blk_queue_bio&#45;&gt;init_request_from_bio</title>
<path fill="none" stroke="black" d="M2314.38,-543.224C2346.91,-539.587 2385.87,-530.713 2415,-510 2423.65,-503.85 2430.34,-494.458 2435.25,-485.402"/>
<polygon fill="black" stroke="black" points="2438.49,-486.757 2439.74,-476.237 2432.2,-483.68 2438.49,-486.757"/>
</g>
<!-- list_add_tail -->
<g id="node91" class="node"><title>list_add_tail</title>
<ellipse fill="none" stroke="black" cx="2608" cy="-458" rx="53.4184" ry="18"/>
<text text-anchor="middle" x="2608" y="-454.3" font-family="Times,serif" font-size="14.00">list_add_tail</text>
</g>
<!-- blk_queue_bio&#45;&gt;list_add_tail -->
<g id="edge91" class="edge"><title>blk_queue_bio&#45;&gt;list_add_tail</title>
<path fill="none" stroke="black" d="M2305.45,-536.293C2342.33,-529.928 2392.39,-520.584 2436,-510 2478.84,-499.603 2526.88,-485.114 2561.28,-474.235"/>
<polygon fill="black" stroke="black" points="2562.58,-477.494 2571.05,-471.127 2560.46,-470.824 2562.58,-477.494"/>
<text text-anchor="middle" x="2521" y="-498.3" font-family="Times,serif" font-size="14.00">if plugged</text>
</g>
<!-- __blk_run_queue -->
<g id="node93" class="node"><title>__blk_run_queue</title>
<ellipse fill="none" stroke="black" cx="2752" cy="-458" rx="72.2155" ry="18"/>
<text text-anchor="middle" x="2752" y="-454.3" font-family="Times,serif" font-size="14.00">__blk_run_queue</text>
</g>
<!-- blk_queue_bio&#45;&gt;__blk_run_queue -->
<g id="edge93" class="edge"><title>blk_queue_bio&#45;&gt;__blk_run_queue</title>
<path fill="none" stroke="black" d="M2312.04,-540.424C2373.05,-535.211 2470.11,-525.369 2553,-510 2602.46,-500.83 2657.83,-486.283 2697.58,-475.068"/>
<polygon fill="black" stroke="black" points="2698.67,-478.395 2707.34,-472.293 2696.76,-471.662 2698.67,-478.395"/>
<text text-anchor="middle" x="2648.5" y="-498.3" font-family="Times,serif" font-size="14.00">!plugged</text>
</g>
<!-- elevator_alloc -->
<g id="node66" class="node"><title>elevator_alloc</title>
<ellipse fill="none" stroke="black" cx="3320" cy="-458" rx="60.1672" ry="18"/>
<text text-anchor="middle" x="3320" y="-454.3" font-family="Times,serif" font-size="14.00">elevator_alloc</text>
</g>
<!-- elevator_init&#45;&gt;elevator_alloc -->
<g id="edge65" class="edge"><title>elevator_init&#45;&gt;elevator_alloc</title>
<path fill="none" stroke="black" d="M3321.6,-527.597C3321.32,-515.746 3320.95,-499.817 3320.63,-486.292"/>
<polygon fill="black" stroke="black" points="3324.13,-486 3320.4,-476.084 3317.13,-486.163 3324.13,-486"/>
</g>
<!-- elevator_init_fn -->
<g id="node68" class="node"><title>elevator_init_fn</title>
<ellipse fill="none" stroke="black" cx="3465" cy="-458" rx="66.4165" ry="18"/>
<text text-anchor="middle" x="3465" y="-454.3" font-family="Times,serif" font-size="14.00">elevator_init_fn</text>
</g>
<!-- elevator_init&#45;&gt;elevator_init_fn -->
<g id="edge67" class="edge"><title>elevator_init&#45;&gt;elevator_init_fn</title>
<path fill="none" stroke="black" d="M3347.24,-529.823C3370.33,-515.934 3404.71,-495.257 3430.37,-479.826"/>
<polygon fill="black" stroke="black" points="3432.28,-482.759 3439.05,-474.606 3428.68,-476.76 3432.28,-482.759"/>
</g>
<!-- blk_try_merge -->
<g id="node71" class="node"><title>blk_try_merge</title>
<ellipse fill="none" stroke="black" cx="1998" cy="-370" rx="63.0666" ry="18"/>
<text text-anchor="middle" x="1998" y="-366.3" font-family="Times,serif" font-size="14.00">blk_try_merge</text>
</g>
<!-- attempt_plug_merge&#45;&gt;blk_try_merge -->
<g id="edge70" class="edge"><title>attempt_plug_merge&#45;&gt;blk_try_merge</title>
<path fill="none" stroke="black" d="M1998,-439.597C1998,-427.746 1998,-411.817 1998,-398.292"/>
<polygon fill="black" stroke="black" points="2001.5,-398.084 1998,-388.084 1994.5,-398.084 2001.5,-398.084"/>
<text text-anchor="middle" x="2103.5" y="-410.3" font-family="Times,serif" font-size="14.00">BACK_MERGE or FRONT_MERGE</text>
</g>
<!-- blk_rq_bio_prep -->
<g id="node79" class="node"><title>blk_rq_bio_prep</title>
<ellipse fill="none" stroke="black" cx="2446" cy="-370" rx="69.3156" ry="18"/>
<text text-anchor="middle" x="2446" y="-366.3" font-family="Times,serif" font-size="14.00">blk_rq_bio_prep</text>
</g>
<!-- init_request_from_bio&#45;&gt;blk_rq_bio_prep -->
<g id="edge79" class="edge"><title>init_request_from_bio&#45;&gt;blk_rq_bio_prep</title>
<path fill="none" stroke="black" d="M2446,-439.597C2446,-427.746 2446,-411.817 2446,-398.292"/>
<polygon fill="black" stroke="black" points="2449.5,-398.084 2446,-388.084 2442.5,-398.084 2449.5,-398.084"/>
</g>
<!-- bio_phys_segments -->
<g id="node81" class="node"><title>bio_phys_segments</title>
<ellipse fill="none" stroke="black" cx="2387" cy="-282" rx="80.389" ry="18"/>
<text text-anchor="middle" x="2387" y="-278.3" font-family="Times,serif" font-size="14.00">bio_phys_segments</text>
</g>
<!-- blk_rq_bio_prep&#45;&gt;bio_phys_segments -->
<g id="edge81" class="edge"><title>blk_rq_bio_prep&#45;&gt;bio_phys_segments</title>
<path fill="none" stroke="black" d="M2434.34,-352.009C2425.78,-339.524 2414,-322.352 2404.33,-308.261"/>
<polygon fill="black" stroke="black" points="2407.18,-306.222 2398.63,-299.956 2401.4,-310.182 2407.18,-306.222"/>
<text text-anchor="middle" x="2445" y="-322.3" font-family="Times,serif" font-size="14.00">has_data</text>
</g>
<!-- bio_data -->
<g id="node87" class="node"><title>bio_data</title>
<ellipse fill="none" stroke="black" cx="2532" cy="-282" rx="40.4202" ry="18"/>
<text text-anchor="middle" x="2532" y="-278.3" font-family="Times,serif" font-size="14.00">bio_data</text>
</g>
<!-- blk_rq_bio_prep&#45;&gt;bio_data -->
<g id="edge87" class="edge"><title>blk_rq_bio_prep&#45;&gt;bio_data</title>
<path fill="none" stroke="black" d="M2462.58,-352.418C2475.8,-339.201 2494.45,-320.546 2509.1,-305.903"/>
<polygon fill="black" stroke="black" points="2511.74,-308.207 2516.34,-298.661 2506.79,-303.257 2511.74,-308.207"/>
<text text-anchor="middle" x="2520" y="-322.3" font-family="Times,serif" font-size="14.00">has_data</text>
</g>
<!-- blk_recount_segments -->
<g id="node83" class="node"><title>blk_recount_segments</title>
<ellipse fill="none" stroke="black" cx="2372" cy="-194" rx="90.0136" ry="18"/>
<text text-anchor="middle" x="2372" y="-190.3" font-family="Times,serif" font-size="14.00">blk_recount_segments</text>
</g>
<!-- bio_phys_segments&#45;&gt;blk_recount_segments -->
<g id="edge83" class="edge"><title>bio_phys_segments&#45;&gt;blk_recount_segments</title>
<path fill="none" stroke="black" d="M2384.04,-264.009C2381.95,-252.073 2379.13,-235.853 2376.73,-222.138"/>
<polygon fill="black" stroke="black" points="2380.17,-221.5 2375.01,-212.25 2373.28,-222.703 2380.17,-221.5"/>
<text text-anchor="middle" x="2437.5" y="-234.3" font-family="Times,serif" font-size="14.00">returns nr_phys_segs</text>
</g>
<!-- __blk_recalc_rq_segments -->
<g id="node84" class="node"><title>__blk_recalc_rq_segments</title>
<ellipse fill="none" stroke="black" cx="2372" cy="-106" rx="104.937" ry="18"/>
<text text-anchor="middle" x="2372" y="-102.3" font-family="Times,serif" font-size="14.00">__blk_recalc_rq_segments</text>
</g>
<!-- blk_recount_segments&#45;&gt;__blk_recalc_rq_segments -->
<g id="edge84" class="edge"><title>blk_recount_segments&#45;&gt;__blk_recalc_rq_segments</title>
<path fill="none" stroke="black" d="M2372,-175.597C2372,-163.746 2372,-147.817 2372,-134.292"/>
<polygon fill="black" stroke="black" points="2375.5,-134.084 2372,-124.084 2368.5,-134.084 2375.5,-134.084"/>
<text text-anchor="middle" x="2429.5" y="-146.3" font-family="Times,serif" font-size="14.00">returns nr_phys_segs</text>
</g>
<!-- for_each_bioandfor_each_segment -->
<g id="node85" class="node"><title>for_each_bioandfor_each_segment</title>
<ellipse fill="none" stroke="black" cx="2372" cy="-18" rx="134.307" ry="18"/>
<text text-anchor="middle" x="2372" y="-14.3" font-family="Times,serif" font-size="14.00">for_each_bioandfor_each_segment</text>
</g>
<!-- __blk_recalc_rq_segments&#45;&gt;for_each_bioandfor_each_segment -->
<g id="edge85" class="edge"><title>__blk_recalc_rq_segments&#45;&gt;for_each_bioandfor_each_segment</title>
<path fill="none" stroke="black" d="M2372,-87.5966C2372,-75.7459 2372,-59.8169 2372,-46.2917"/>
<polygon fill="black" stroke="black" points="2375.5,-46.084 2372,-36.084 2368.5,-46.084 2375.5,-46.084"/>
<text text-anchor="middle" x="2429.5" y="-58.3" font-family="Times,serif" font-size="14.00">returns nr_phys_segs</text>
</g>
<!-- page_address -->
<g id="node89" class="node"><title>page_address</title>
<ellipse fill="none" stroke="black" cx="2538" cy="-194" rx="57.2688" ry="18"/>
<text text-anchor="middle" x="2538" y="-190.3" font-family="Times,serif" font-size="14.00">page_address</text>
</g>
<!-- bio_data&#45;&gt;page_address -->
<g id="edge89" class="edge"><title>bio_data&#45;&gt;page_address</title>
<path fill="none" stroke="black" d="M2533.21,-263.597C2534.04,-251.746 2535.15,-235.817 2536.1,-222.292"/>
<polygon fill="black" stroke="black" points="2539.6,-222.303 2536.81,-212.084 2532.62,-221.816 2539.6,-222.303"/>
</g>
<!-- __blk_run_queue_uncond -->
<g id="node95" class="node"><title>__blk_run_queue_uncond</title>
<ellipse fill="none" stroke="black" cx="2752" cy="-370" rx="102.536" ry="18"/>
<text text-anchor="middle" x="2752" y="-366.3" font-family="Times,serif" font-size="14.00">__blk_run_queue_uncond</text>
</g>
<!-- __blk_run_queue&#45;&gt;__blk_run_queue_uncond -->
<g id="edge95" class="edge"><title>__blk_run_queue&#45;&gt;__blk_run_queue_uncond</title>
<path fill="none" stroke="black" d="M2752,-439.597C2752,-427.746 2752,-411.817 2752,-398.292"/>
<polygon fill="black" stroke="black" points="2755.5,-398.084 2752,-388.084 2748.5,-398.084 2755.5,-398.084"/>
<text text-anchor="middle" x="2813" y="-410.3" font-family="Times,serif" font-size="14.00">if !blk_queue_stopped</text>
</g>
<!-- request_fn -->
<g id="node97" class="node"><title>request_fn</title>
<ellipse fill="none" stroke="black" cx="2752" cy="-282" rx="48.1437" ry="18"/>
<text text-anchor="middle" x="2752" y="-278.3" font-family="Times,serif" font-size="14.00">request_fn</text>
</g>
<!-- __blk_run_queue_uncond&#45;&gt;request_fn -->
<g id="edge97" class="edge"><title>__blk_run_queue_uncond&#45;&gt;request_fn</title>
<path fill="none" stroke="black" d="M2752,-351.597C2752,-339.746 2752,-323.817 2752,-310.292"/>
<polygon fill="black" stroke="black" points="2755.5,-310.084 2752,-300.084 2748.5,-310.084 2755.5,-310.084"/>
</g>
</g>
</svg>
